<svg width="387" height="205" viewBox="0 0 387 205" fill="none" xmlns="http://www.w3.org/2000/svg">
<g filter="url(#filter0_d_118_165)">
<rect x="38" y="38" width="311" height="129" rx="6" fill="white"/>
</g>
<path d="M50.016 63H48.154L51.85 52.766H53.684L57.38 63H55.49L54.664 60.634H50.842L50.016 63ZM52.536 55.818L51.374 59.122H54.146L52.97 55.818C52.886 55.552 52.788 55.244 52.76 55.034C52.718 55.23 52.634 55.538 52.536 55.818ZM59.8518 63L57.1078 56.084H58.9278L60.1318 59.262C60.4258 60.088 60.6638 60.802 60.7478 61.18C60.8458 60.746 61.0978 60.018 61.3918 59.262L62.6518 56.084H64.4158L61.5318 63H59.8518ZM68.1498 63.182C66.0918 63.182 64.6498 61.684 64.6498 59.542C64.6498 57.372 66.0638 55.874 68.0938 55.874C70.1658 55.874 71.4818 57.26 71.4818 59.416V59.934L66.2738 59.948C66.3998 61.166 67.0438 61.782 68.1778 61.782C69.1158 61.782 69.7318 61.418 69.9278 60.76H71.5098C71.2158 62.272 69.9558 63.182 68.1498 63.182ZM68.1078 57.274C67.0998 57.274 66.4838 57.82 66.3158 58.856H69.7878C69.7878 57.904 69.1298 57.274 68.1078 57.274ZM77.1888 56.056V57.638H76.5588C75.3268 57.638 74.5568 58.296 74.5568 59.64V63H72.8488V56.098H74.4588L74.5568 57.106C74.8508 56.42 75.5088 55.958 76.4328 55.958C76.6708 55.958 76.9088 55.986 77.1888 56.056ZM80.1295 63.182C78.6595 63.182 77.7635 62.328 77.7635 61.026C77.7635 59.752 78.6875 58.954 80.3255 58.828L82.3975 58.674V58.52C82.3975 57.582 81.8375 57.204 80.9695 57.204C79.9615 57.204 79.4015 57.624 79.4015 58.352H77.9455C77.9455 56.854 79.1775 55.874 81.0535 55.874C82.9155 55.874 84.0635 56.882 84.0635 58.8V63H82.5655L82.4395 61.978C82.1455 62.692 81.2075 63.182 80.1295 63.182ZM80.6895 61.894C81.7395 61.894 82.4115 61.264 82.4115 60.2V59.836L80.9695 59.948C79.9055 60.046 79.4995 60.396 79.4995 60.956C79.4995 61.586 79.9195 61.894 80.6895 61.894ZM85.3494 59.388C85.3494 57.372 86.6654 55.86 88.6394 55.86C89.6754 55.86 90.4874 56.294 90.8934 57.036L90.9914 56.084H92.5734V62.65C92.5734 64.96 91.1874 66.402 88.9474 66.402C86.9594 66.402 85.6014 65.268 85.3914 63.42H87.0994C87.2114 64.316 87.8974 64.848 88.9474 64.848C90.1234 64.848 90.8794 64.106 90.8794 62.958V61.81C90.4454 62.454 89.5914 62.86 88.5974 62.86C86.6374 62.86 85.3494 61.39 85.3494 59.388ZM87.0714 59.346C87.0714 60.508 87.8134 61.376 88.9334 61.376C90.1094 61.376 90.8374 60.55 90.8374 59.346C90.8374 58.17 90.1234 57.358 88.9334 57.358C87.7994 57.358 87.0714 58.212 87.0714 59.346ZM97.435 63.182C95.377 63.182 93.935 61.684 93.935 59.542C93.935 57.372 95.349 55.874 97.379 55.874C99.451 55.874 100.767 57.26 100.767 59.416V59.934L95.559 59.948C95.685 61.166 96.329 61.782 97.463 61.782C98.401 61.782 99.017 61.418 99.213 60.76H100.795C100.501 62.272 99.241 63.182 97.435 63.182ZM97.393 57.274C96.385 57.274 95.769 57.82 95.601 58.856H99.073C99.073 57.904 98.415 57.274 97.393 57.274ZM107.951 63H106.159V52.766H110.065C112.389 52.766 113.747 53.942 113.747 55.958C113.747 57.33 113.103 58.31 111.899 58.8L113.845 63H111.885L110.149 59.178H107.951V63ZM107.951 54.362V57.596H110.065C111.199 57.596 111.871 56.994 111.871 55.958C111.871 54.936 111.199 54.362 110.065 54.362H107.951ZM117.888 63.182C115.83 63.182 114.388 61.684 114.388 59.542C114.388 57.372 115.802 55.874 117.832 55.874C119.904 55.874 121.22 57.26 121.22 59.416V59.934L116.012 59.948C116.138 61.166 116.782 61.782 117.916 61.782C118.854 61.782 119.47 61.418 119.666 60.76H121.248C120.954 62.272 119.694 63.182 117.888 63.182ZM117.846 57.274C116.838 57.274 116.222 57.82 116.054 58.856H119.526C119.526 57.904 118.868 57.274 117.846 57.274ZM122.055 60.9H123.679C123.693 61.502 124.141 61.88 124.925 61.88C125.723 61.88 126.157 61.558 126.157 61.054C126.157 60.704 125.975 60.452 125.359 60.312L124.113 60.018C122.867 59.738 122.265 59.15 122.265 58.044C122.265 56.686 123.413 55.874 125.009 55.874C126.563 55.874 127.613 56.77 127.627 58.114H126.003C125.989 57.526 125.597 57.148 124.939 57.148C124.267 57.148 123.875 57.456 123.875 57.974C123.875 58.366 124.183 58.618 124.771 58.758L126.017 59.052C127.179 59.318 127.767 59.85 127.767 60.914C127.767 62.314 126.577 63.182 124.869 63.182C123.147 63.182 122.055 62.258 122.055 60.9ZM128.662 59.528C128.662 57.372 130.216 55.888 132.358 55.888C134.5 55.888 136.054 57.372 136.054 59.528C136.054 61.684 134.5 63.168 132.358 63.168C130.216 63.168 128.662 61.684 128.662 59.528ZM130.37 59.528C130.37 60.788 131.182 61.642 132.358 61.642C133.534 61.642 134.346 60.788 134.346 59.528C134.346 58.268 133.534 57.414 132.358 57.414C131.182 57.414 130.37 58.268 130.37 59.528ZM139.129 63H137.435V52.584H139.129V63ZM145.611 56.084H147.319V63H145.737L145.611 62.076C145.191 62.734 144.295 63.182 143.371 63.182C141.775 63.182 140.837 62.104 140.837 60.41V56.084H142.545V59.808C142.545 61.124 143.063 61.656 144.015 61.656C145.093 61.656 145.611 61.026 145.611 59.71V56.084ZM151.435 63H149.727V57.512H148.397V56.084H149.727V53.928H151.435V56.084H152.779V57.512H151.435V63ZM154.695 54.698C154.107 54.698 153.645 54.236 153.645 53.662C153.645 53.088 154.107 52.64 154.695 52.64C155.255 52.64 155.717 53.088 155.717 53.662C155.717 54.236 155.255 54.698 154.695 54.698ZM153.841 63V56.084H155.549V63H153.841ZM156.908 59.528C156.908 57.372 158.462 55.888 160.604 55.888C162.746 55.888 164.3 57.372 164.3 59.528C164.3 61.684 162.746 63.168 160.604 63.168C158.462 63.168 156.908 61.684 156.908 59.528ZM158.616 59.528C158.616 60.788 159.428 61.642 160.604 61.642C161.78 61.642 162.592 60.788 162.592 59.528C162.592 58.268 161.78 57.414 160.604 57.414C159.428 57.414 158.616 58.268 158.616 59.528ZM167.361 63H165.653V56.084H167.235L167.375 56.98C167.809 56.28 168.649 55.874 169.587 55.874C171.323 55.874 172.219 56.952 172.219 58.744V63H170.511V59.15C170.511 57.988 169.937 57.428 169.055 57.428C168.005 57.428 167.361 58.156 167.361 59.276V63ZM177.027 54.418V52.766H184.811V54.418H181.815V63H180.023V54.418H177.027ZM186.783 54.698C186.195 54.698 185.733 54.236 185.733 53.662C185.733 53.088 186.195 52.64 186.783 52.64C187.343 52.64 187.805 53.088 187.805 53.662C187.805 54.236 187.343 54.698 186.783 54.698ZM185.929 63V56.084H187.637V63H185.929ZM191.11 63H189.402V56.084H190.97L191.11 56.896C191.46 56.322 192.16 55.874 193.154 55.874C194.204 55.874 194.932 56.392 195.296 57.19C195.646 56.392 196.458 55.874 197.508 55.874C199.188 55.874 200.112 56.882 200.112 58.478V63H198.418V58.926C198.418 57.932 197.886 57.414 197.074 57.414C196.248 57.414 195.618 57.946 195.618 59.08V63H193.91V58.912C193.91 57.946 193.392 57.428 192.58 57.428C191.768 57.428 191.11 57.96 191.11 59.08V63ZM204.882 63.182C202.824 63.182 201.382 61.684 201.382 59.542C201.382 57.372 202.796 55.874 204.826 55.874C206.898 55.874 208.214 57.26 208.214 59.416V59.934L203.006 59.948C203.132 61.166 203.776 61.782 204.91 61.782C205.848 61.782 206.464 61.418 206.66 60.76H208.242C207.948 62.272 206.688 63.182 204.882 63.182ZM204.84 57.274C203.832 57.274 203.216 57.82 203.048 58.856H206.52C206.52 57.904 205.862 57.274 204.84 57.274Z" fill="black"/>
<path d="M48.12 74.5V73.84H53.25V74.5H51.04V81H50.32V74.5H48.12ZM54.4311 74.83C54.1511 74.83 53.9211 74.6 53.9211 74.32C53.9211 74.04 54.1511 73.8 54.4311 73.8C54.7111 73.8 54.9511 74.04 54.9511 74.32C54.9511 74.6 54.7111 74.83 54.4311 74.83ZM54.0911 81V76.16H54.7811V81H54.0911ZM56.91 81H56.22V76.16H56.82L56.9 76.85C57.14 76.34 57.68 76.03 58.36 76.03C59.12 76.03 59.69 76.43 59.92 77.06C60.14 76.43 60.73 76.03 61.51 76.03C62.56 76.03 63.25 76.71 63.25 77.83V81H62.58V77.97C62.58 77.14 62.12 76.65 61.38 76.65C60.57 76.65 60.09 77.26 60.09 78.01V81H59.41V77.96C59.41 77.14 58.94 76.66 58.21 76.66C57.4 76.66 56.91 77.26 56.91 78V81ZM66.668 81.12C65.248 81.12 64.298 80.1 64.298 78.58C64.298 77.07 65.238 76.03 66.618 76.03C67.928 76.03 68.818 76.96 68.818 78.33V78.67H64.968C65.018 79.85 65.638 80.53 66.678 80.53C67.468 80.53 67.978 80.19 68.158 79.55H68.818C68.558 80.57 67.808 81.12 66.668 81.12ZM66.618 76.62C65.708 76.62 65.108 77.22 64.988 78.17H68.128C68.128 77.24 67.528 76.62 66.618 76.62ZM73.8046 81H73.1246V76.74H72.1546V76.16H73.1246V74.63H73.8046V76.16H74.7746V76.74H73.8046V81ZM76.985 81.12C75.955 81.12 75.345 80.54 75.345 79.69C75.345 78.8 76.025 78.24 77.155 78.15L78.755 78.02V77.86C78.755 76.91 78.185 76.61 77.475 76.61C76.635 76.61 76.135 76.99 76.135 77.64H75.505C75.505 76.66 76.305 76.03 77.495 76.03C78.615 76.03 79.435 76.59 79.435 77.87V81H78.855L78.765 80.15C78.465 80.76 77.805 81.12 76.985 81.12ZM77.145 80.56C78.165 80.56 78.755 79.85 78.755 78.8V78.54L77.325 78.65C76.415 78.73 76.045 79.13 76.045 79.67C76.045 80.26 76.485 80.56 77.145 80.56ZM81.5396 81H80.8496V73.71H81.5396V78.66L83.9396 76.16H84.8096L82.9496 78.09L84.8196 81H84.0196L82.4796 78.58L81.5396 79.55V81ZM87.5078 81.12C86.0878 81.12 85.1378 80.1 85.1378 78.58C85.1378 77.07 86.0778 76.03 87.4578 76.03C88.7678 76.03 89.6578 76.96 89.6578 78.33V78.67H85.8078C85.8578 79.85 86.4778 80.53 87.5178 80.53C88.3078 80.53 88.8178 80.19 88.9978 79.55H89.6578C89.3978 80.57 88.6478 81.12 87.5078 81.12ZM87.4578 76.62C86.5478 76.62 85.9478 77.22 85.8278 78.17H88.9678C88.9678 77.24 88.3678 76.62 87.4578 76.62ZM91.451 81H90.761V76.16H91.361L91.461 77C91.781 76.38 92.421 76.03 93.121 76.03C94.451 76.03 95.001 76.82 95.001 78.04V81H94.311V78.19C94.311 77.06 93.801 76.66 93.001 76.66C92.011 76.66 91.451 77.38 91.451 78.47V81ZM100.26 81H99.5797V76.74H98.6097V76.16H99.5797V74.63H100.26V76.16H101.23V76.74H100.26V81ZM101.739 78.58C101.739 77.1 102.779 76.03 104.199 76.03C105.619 76.03 106.659 77.1 106.659 78.58C106.659 80.05 105.619 81.12 104.199 81.12C102.779 81.12 101.739 80.05 101.739 78.58ZM102.439 78.57C102.439 79.71 103.159 80.5 104.199 80.5C105.229 80.5 105.959 79.71 105.959 78.57C105.959 77.45 105.229 76.65 104.199 76.65C103.159 76.65 102.439 77.45 102.439 78.57ZM113.066 76.1V76.72H112.686C111.796 76.72 111.226 77.32 111.226 78.24V81H110.536V76.16H111.186L111.236 76.91C111.426 76.39 111.936 76.05 112.616 76.05C112.766 76.05 112.896 76.06 113.066 76.1ZM115.828 81.12C114.408 81.12 113.458 80.1 113.458 78.58C113.458 77.07 114.398 76.03 115.778 76.03C117.088 76.03 117.978 76.96 117.978 78.33V78.67H114.128C114.178 79.85 114.798 80.53 115.838 80.53C116.628 80.53 117.138 80.19 117.318 79.55H117.978C117.718 80.57 116.968 81.12 115.828 81.12ZM115.778 76.62C114.868 76.62 114.268 77.22 114.148 78.17H117.288C117.288 77.24 116.688 76.62 115.778 76.62ZM118.671 79.64H119.331C119.331 80.2 119.751 80.55 120.431 80.55C121.181 80.55 121.621 80.23 121.621 79.71C121.621 79.31 121.421 79.08 120.851 78.94L120.021 78.73C119.181 78.52 118.771 78.08 118.771 77.42C118.771 76.57 119.481 76.03 120.521 76.03C121.541 76.03 122.201 76.59 122.231 77.49H121.561C121.541 76.93 121.151 76.6 120.501 76.6C119.821 76.6 119.441 76.89 119.441 77.41C119.441 77.78 119.701 78.04 120.231 78.17L121.061 78.38C121.901 78.59 122.281 78.98 122.281 79.68C122.281 80.55 121.541 81.12 120.441 81.12C119.351 81.12 118.671 80.54 118.671 79.64ZM123.077 78.58C123.077 77.1 124.117 76.03 125.537 76.03C126.957 76.03 127.997 77.1 127.997 78.58C127.997 80.05 126.957 81.12 125.537 81.12C124.117 81.12 123.077 80.05 123.077 78.58ZM123.777 78.57C123.777 79.71 124.497 80.5 125.537 80.5C126.567 80.5 127.297 79.71 127.297 78.57C127.297 77.45 126.567 76.65 125.537 76.65C124.497 76.65 123.777 77.45 123.777 78.57ZM129.821 81H129.131V73.71H129.821V81ZM132.638 81L130.658 76.16H131.398L132.648 79.28C132.778 79.63 132.908 79.96 132.998 80.28C133.088 79.95 133.218 79.63 133.358 79.28L134.628 76.16H135.338L133.328 81H132.638ZM137.967 81.12C136.547 81.12 135.597 80.1 135.597 78.58C135.597 77.07 136.537 76.03 137.917 76.03C139.227 76.03 140.117 76.96 140.117 78.33V78.67H136.267C136.317 79.85 136.937 80.53 137.977 80.53C138.767 80.53 139.277 80.19 139.457 79.55H140.117C139.857 80.57 139.107 81.12 137.967 81.12ZM137.917 76.62C137.007 76.62 136.407 77.22 136.287 78.17H139.427C139.427 77.24 138.827 76.62 137.917 76.62ZM143.653 78.59C143.653 77.07 144.583 76.03 145.993 76.03C147.113 76.03 147.933 76.68 148.123 77.68H147.433C147.253 77.01 146.673 76.64 146.003 76.64C145.023 76.64 144.333 77.39 144.333 78.58C144.333 79.73 144.973 80.5 145.953 80.5C146.673 80.5 147.253 80.1 147.443 79.48H148.143C147.913 80.47 147.053 81.12 145.953 81.12C144.583 81.12 143.653 80.11 143.653 78.59ZM152.589 76.16H153.279V81H152.679L152.589 80.18C152.319 80.74 151.649 81.12 150.889 81.12C149.749 81.12 149.129 80.34 149.129 79.16V76.15H149.829V78.94C149.829 80.09 150.339 80.5 151.109 80.5C152.039 80.5 152.589 79.88 152.589 78.73V76.16ZM154.208 79.64H154.868C154.868 80.2 155.288 80.55 155.968 80.55C156.718 80.55 157.158 80.23 157.158 79.71C157.158 79.31 156.958 79.08 156.388 78.94L155.558 78.73C154.718 78.52 154.308 78.08 154.308 77.42C154.308 76.57 155.018 76.03 156.058 76.03C157.078 76.03 157.738 76.59 157.768 77.49H157.098C157.078 76.93 156.688 76.6 156.038 76.6C155.358 76.6 154.978 76.89 154.978 77.41C154.978 77.78 155.238 78.04 155.768 78.17L156.598 78.38C157.438 78.59 157.818 78.98 157.818 79.68C157.818 80.55 157.078 81.12 155.978 81.12C154.888 81.12 154.208 80.54 154.208 79.64ZM160.064 81H159.384V76.74H158.414V76.16H159.384V74.63H160.064V76.16H161.034V76.74H160.064V81ZM161.544 78.58C161.544 77.1 162.584 76.03 164.004 76.03C165.424 76.03 166.464 77.1 166.464 78.58C166.464 80.05 165.424 81.12 164.004 81.12C162.584 81.12 161.544 80.05 161.544 78.58ZM162.244 78.57C162.244 79.71 162.964 80.5 164.004 80.5C165.034 80.5 165.764 79.71 165.764 78.57C165.764 77.45 165.034 76.65 164.004 76.65C162.964 76.65 162.244 77.45 162.244 78.57ZM168.258 81H167.568V76.16H168.168L168.248 76.85C168.488 76.34 169.028 76.03 169.708 76.03C170.468 76.03 171.038 76.43 171.268 77.06C171.488 76.43 172.078 76.03 172.858 76.03C173.908 76.03 174.598 76.71 174.598 77.83V81H173.928V77.97C173.928 77.14 173.468 76.65 172.728 76.65C171.918 76.65 171.438 77.26 171.438 78.01V81H170.758V77.96C170.758 77.14 170.288 76.66 169.558 76.66C168.748 76.66 168.258 77.26 168.258 78V81ZM178.016 81.12C176.596 81.12 175.646 80.1 175.646 78.58C175.646 77.07 176.586 76.03 177.966 76.03C179.276 76.03 180.166 76.96 180.166 78.33V78.67H176.316C176.366 79.85 176.986 80.53 178.026 80.53C178.816 80.53 179.326 80.19 179.506 79.55H180.166C179.906 80.57 179.156 81.12 178.016 81.12ZM177.966 76.62C177.056 76.62 176.456 77.22 176.336 78.17H179.476C179.476 77.24 178.876 76.62 177.966 76.62ZM183.799 76.1V76.72H183.419C182.529 76.72 181.959 77.32 181.959 78.24V81H181.269V76.16H181.919L181.969 76.91C182.159 76.39 182.669 76.05 183.349 76.05C183.499 76.05 183.629 76.06 183.799 76.1ZM186.95 76.16H187.69V75.22C187.69 74.13 188.29 73.71 189.03 73.71C189.2 73.71 189.4 73.72 189.56 73.75V74.34H189.15C188.54 74.34 188.38 74.65 188.38 75.22V76.16H189.52V76.74H188.38V81H187.69V76.74H186.95V76.16ZM192.342 81.12C190.922 81.12 189.972 80.1 189.972 78.58C189.972 77.07 190.912 76.03 192.292 76.03C193.602 76.03 194.492 76.96 194.492 78.33V78.67H190.642C190.692 79.85 191.312 80.53 192.352 80.53C193.142 80.53 193.652 80.19 193.832 79.55H194.492C194.232 80.57 193.482 81.12 192.342 81.12ZM192.292 76.62C191.382 76.62 190.782 77.22 190.662 78.17H193.802C193.802 77.24 193.202 76.62 192.292 76.62ZM197.625 81.12C196.205 81.12 195.255 80.1 195.255 78.58C195.255 77.07 196.195 76.03 197.575 76.03C198.885 76.03 199.775 76.96 199.775 78.33V78.67H195.925C195.975 79.85 196.595 80.53 197.635 80.53C198.425 80.53 198.935 80.19 199.115 79.55H199.775C199.515 80.57 198.765 81.12 197.625 81.12ZM197.575 76.62C196.665 76.62 196.065 77.22 195.945 78.17H199.085C199.085 77.24 198.485 76.62 197.575 76.62ZM202.778 81.12C201.368 81.12 200.538 80.04 200.538 78.59C200.538 77.13 201.368 76.03 202.808 76.03C203.608 76.03 204.248 76.38 204.588 77.08V73.71H205.278V81H204.678L204.608 80.01C204.268 80.76 203.588 81.12 202.778 81.12ZM202.898 80.49C203.958 80.49 204.578 79.69 204.578 78.57C204.578 77.46 203.958 76.65 202.898 76.65C201.848 76.65 201.238 77.46 201.238 78.57C201.238 79.69 201.848 80.49 202.898 80.49ZM207.318 81H206.718V73.71H207.408V77.1C207.748 76.39 208.408 76.03 209.228 76.03C210.638 76.03 211.458 77.13 211.458 78.59C211.458 80.04 210.618 81.12 209.208 81.12C208.398 81.12 207.728 80.76 207.388 80.01L207.318 81ZM207.418 78.57C207.418 79.69 208.038 80.49 209.098 80.49C210.148 80.49 210.758 79.69 210.758 78.57C210.758 77.46 210.148 76.65 209.098 76.65C208.038 76.65 207.418 77.46 207.418 78.57ZM213.948 81.12C212.918 81.12 212.308 80.54 212.308 79.69C212.308 78.8 212.988 78.24 214.118 78.15L215.718 78.02V77.86C215.718 76.91 215.148 76.61 214.438 76.61C213.598 76.61 213.098 76.99 213.098 77.64H212.468C212.468 76.66 213.268 76.03 214.458 76.03C215.578 76.03 216.398 76.59 216.398 77.87V81H215.818L215.728 80.15C215.428 80.76 214.768 81.12 213.948 81.12ZM214.108 80.56C215.128 80.56 215.718 79.85 215.718 78.8V78.54L214.288 78.65C213.378 78.73 213.008 79.13 213.008 79.67C213.008 80.26 213.448 80.56 214.108 80.56ZM217.443 78.59C217.443 77.07 218.373 76.03 219.783 76.03C220.903 76.03 221.723 76.68 221.913 77.68H221.223C221.043 77.01 220.463 76.64 219.793 76.64C218.813 76.64 218.123 77.39 218.123 78.58C218.123 79.73 218.763 80.5 219.743 80.5C220.463 80.5 221.043 80.1 221.233 79.48H221.933C221.703 80.47 220.843 81.12 219.743 81.12C218.373 81.12 217.443 80.11 217.443 78.59ZM223.698 81H223.008V73.71H223.698V78.66L226.098 76.16H226.968L225.108 78.09L226.978 81H226.178L224.638 78.58L223.698 79.55V81ZM228.392 81.11C228.052 81.11 227.762 80.83 227.762 80.5C227.762 80.16 228.052 79.87 228.392 79.87C228.732 79.87 229.022 80.16 229.022 80.5C229.022 80.83 228.732 81.11 228.392 81.11Z" fill="black"/>
<rect x="298" y="49" width="41" height="17" rx="3" fill="black"/>
<path d="M309.084 55.45V54.988H312.675V55.45H311.128V60H310.624V55.45H309.084ZM312.506 58.306C312.506 57.27 313.234 56.521 314.228 56.521C315.222 56.521 315.95 57.27 315.95 58.306C315.95 59.335 315.222 60.084 314.228 60.084C313.234 60.084 312.506 59.335 312.506 58.306ZM312.996 58.299C312.996 59.097 313.5 59.65 314.228 59.65C314.949 59.65 315.46 59.097 315.46 58.299C315.46 57.515 314.949 56.955 314.228 56.955C313.5 56.955 312.996 57.515 312.996 58.299ZM318.053 60.084C317.066 60.084 316.485 59.328 316.485 58.313C316.485 57.291 317.066 56.521 318.074 56.521C318.634 56.521 319.082 56.766 319.32 57.256V54.897H319.803V60H319.383L319.334 59.307C319.096 59.832 318.62 60.084 318.053 60.084ZM318.137 59.643C318.879 59.643 319.313 59.083 319.313 58.299C319.313 57.522 318.879 56.955 318.137 56.955C317.402 56.955 316.975 57.522 316.975 58.299C316.975 59.083 317.402 59.643 318.137 59.643ZM321.784 60.084C321.063 60.084 320.636 59.678 320.636 59.083C320.636 58.46 321.112 58.068 321.903 58.005L323.023 57.914V57.802C323.023 57.137 322.624 56.927 322.127 56.927C321.539 56.927 321.189 57.193 321.189 57.648H320.748C320.748 56.962 321.308 56.521 322.141 56.521C322.925 56.521 323.499 56.913 323.499 57.809V60H323.093L323.03 59.405C322.82 59.832 322.358 60.084 321.784 60.084ZM321.896 59.692C322.61 59.692 323.023 59.195 323.023 58.46V58.278L322.022 58.355C321.385 58.411 321.126 58.691 321.126 59.069C321.126 59.482 321.434 59.692 321.896 59.692ZM324.05 61.477V61.078H324.421C324.715 61.078 325.009 61.057 325.177 60.602L325.324 60.203L323.952 56.612H324.463L325.555 59.566L326.626 56.612H327.123L325.569 60.777C325.373 61.309 325.044 61.526 324.561 61.526C324.358 61.526 324.204 61.512 324.05 61.477Z" fill="white"/>
<line x1="50.5" y1="146.5" x2="336.5" y2="146.5" stroke="#E9E9E9" stroke-width="5" stroke-linecap="round"/>
<line x1="50.5" y1="146.5" x2="243.5" y2="146.5" stroke="#4ECD4E" stroke-width="5" stroke-linecap="round"/>
<path d="M62.616 121.664H60.48V125H57.576V121.664H48.672V118.976L56.616 107.456H60.48V118.976H62.616V121.664ZM51.936 118.976H57.576V110.768L51.936 118.976ZM67.9556 125H65.0276V113.144H67.7156L67.9556 114.536C68.5556 113.552 69.7556 112.784 71.4596 112.784C73.2596 112.784 74.5076 113.672 75.1316 115.04C75.7316 113.672 77.1236 112.784 78.9236 112.784C81.8036 112.784 83.3876 114.512 83.3876 117.248V125H80.4836V118.016C80.4836 116.312 79.5716 115.424 78.1796 115.424C76.7636 115.424 75.6836 116.336 75.6836 118.28V125H72.7556V117.992C72.7556 116.336 71.8676 115.448 70.4756 115.448C69.0836 115.448 67.9556 116.36 67.9556 118.28V125Z" fill="black"/>
<path d="M249.62 119.87V118.79H252.84V119.87H249.62ZM254.68 115.84H253.08V114.69H255.91V122H254.68V115.84ZM262.255 121.99L257.185 122V121.04L259.575 119.02C260.565 118.18 260.895 117.7 260.895 117C260.895 116.17 260.445 115.7 259.675 115.7C258.875 115.7 258.375 116.26 258.365 117.2H257.095C257.105 115.6 258.125 114.56 259.675 114.56C261.235 114.56 262.205 115.45 262.205 116.93C262.205 117.95 261.645 118.72 260.535 119.67L259.215 120.8H262.255V121.99ZM266.773 116.47C266.773 117.6 265.973 118.39 264.863 118.39C263.753 118.39 262.953 117.6 262.953 116.47C262.953 115.35 263.753 114.55 264.863 114.55C265.973 114.55 266.773 115.35 266.773 116.47ZM270.783 114.7L265.233 122H264.013L269.563 114.7H270.783ZM265.803 116.47C265.803 115.89 265.423 115.49 264.863 115.49C264.303 115.49 263.933 115.89 263.933 116.47C263.933 117.05 264.313 117.45 264.863 117.45C265.423 117.45 265.803 117.05 265.803 116.47ZM271.853 120.21C271.853 121.33 271.063 122.13 269.953 122.13C268.833 122.13 268.043 121.33 268.043 120.21C268.043 119.09 268.833 118.29 269.953 118.29C271.063 118.29 271.853 119.09 271.853 120.21ZM270.883 120.21C270.883 119.63 270.503 119.23 269.953 119.23C269.393 119.23 269.013 119.63 269.013 120.21C269.013 120.79 269.393 121.19 269.953 121.19C270.503 121.19 270.883 120.79 270.883 120.21ZM275.157 117.16H275.897V116.22C275.897 115.13 276.497 114.71 277.237 114.71C277.407 114.71 277.607 114.72 277.767 114.75V115.34H277.357C276.747 115.34 276.587 115.65 276.587 116.22V117.16H277.727V117.74H276.587V122H275.897V117.74H275.157V117.16ZM281.195 117.1V117.72H280.815C279.925 117.72 279.355 118.32 279.355 119.24V122H278.665V117.16H279.315L279.365 117.91C279.555 117.39 280.065 117.05 280.745 117.05C280.895 117.05 281.025 117.06 281.195 117.1ZM281.587 119.58C281.587 118.1 282.627 117.03 284.047 117.03C285.467 117.03 286.507 118.1 286.507 119.58C286.507 121.05 285.467 122.12 284.047 122.12C282.627 122.12 281.587 121.05 281.587 119.58ZM282.287 119.57C282.287 120.71 283.007 121.5 284.047 121.5C285.077 121.5 285.807 120.71 285.807 119.57C285.807 118.45 285.077 117.65 284.047 117.65C283.007 117.65 282.287 118.45 282.287 119.57ZM288.301 122H287.611V117.16H288.211L288.291 117.85C288.531 117.34 289.071 117.03 289.751 117.03C290.511 117.03 291.081 117.43 291.311 118.06C291.531 117.43 292.121 117.03 292.901 117.03C293.951 117.03 294.641 117.71 294.641 118.83V122H293.971V118.97C293.971 118.14 293.511 117.65 292.771 117.65C291.961 117.65 291.481 118.26 291.481 119.01V122H290.801V118.96C290.801 118.14 290.331 117.66 289.601 117.66C288.791 117.66 288.301 118.26 288.301 119V122ZM298.312 124.11V123.54H298.842C299.262 123.54 299.682 123.51 299.922 122.86L300.132 122.29L298.172 117.16H298.902L300.462 121.38L301.992 117.16H302.702L300.482 123.11C300.202 123.87 299.732 124.18 299.042 124.18C298.752 124.18 298.532 124.16 298.312 124.11ZM305.373 122.12C303.953 122.12 303.003 121.1 303.003 119.58C303.003 118.07 303.943 117.03 305.323 117.03C306.633 117.03 307.523 117.96 307.523 119.33V119.67H303.673C303.723 120.85 304.343 121.53 305.383 121.53C306.173 121.53 306.683 121.19 306.863 120.55H307.523C307.263 121.57 306.513 122.12 305.373 122.12ZM305.323 117.62C304.413 117.62 303.813 118.22 303.693 119.17H306.833C306.833 118.24 306.233 117.62 305.323 117.62ZM308.216 120.64H308.876C308.876 121.2 309.296 121.55 309.976 121.55C310.726 121.55 311.166 121.23 311.166 120.71C311.166 120.31 310.966 120.08 310.396 119.94L309.566 119.73C308.726 119.52 308.316 119.08 308.316 118.42C308.316 117.57 309.026 117.03 310.066 117.03C311.086 117.03 311.746 117.59 311.776 118.49H311.106C311.086 117.93 310.696 117.6 310.046 117.6C309.366 117.6 308.986 117.89 308.986 118.41C308.986 118.78 309.246 119.04 309.776 119.17L310.606 119.38C311.446 119.59 311.826 119.98 311.826 120.68C311.826 121.55 311.086 122.12 309.986 122.12C308.896 122.12 308.216 121.54 308.216 120.64ZM314.072 122H313.392V117.74H312.422V117.16H313.392V115.63H314.072V117.16H315.042V117.74H314.072V122ZM317.922 122.12C316.502 122.12 315.552 121.1 315.552 119.58C315.552 118.07 316.492 117.03 317.872 117.03C319.182 117.03 320.072 117.96 320.072 119.33V119.67H316.222C316.272 120.85 316.892 121.53 317.932 121.53C318.722 121.53 319.232 121.19 319.412 120.55H320.072C319.812 121.57 319.062 122.12 317.922 122.12ZM317.872 117.62C316.962 117.62 316.362 118.22 316.242 119.17H319.382C319.382 118.24 318.782 117.62 317.872 117.62ZM323.705 117.1V117.72H323.325C322.435 117.72 321.865 118.32 321.865 119.24V122H321.175V117.16H321.825L321.875 117.91C322.065 117.39 322.575 117.05 323.255 117.05C323.405 117.05 323.535 117.06 323.705 117.1ZM326.337 122.12C324.927 122.12 324.097 121.04 324.097 119.59C324.097 118.13 324.927 117.03 326.367 117.03C327.167 117.03 327.807 117.38 328.147 118.08V114.71H328.837V122H328.237L328.167 121.01C327.827 121.76 327.147 122.12 326.337 122.12ZM326.457 121.49C327.517 121.49 328.137 120.69 328.137 119.57C328.137 118.46 327.517 117.65 326.457 117.65C325.407 117.65 324.797 118.46 324.797 119.57C324.797 120.69 325.407 121.49 326.457 121.49ZM331.667 122.12C330.637 122.12 330.027 121.54 330.027 120.69C330.027 119.8 330.707 119.24 331.837 119.15L333.437 119.02V118.86C333.437 117.91 332.867 117.61 332.157 117.61C331.317 117.61 330.817 117.99 330.817 118.64H330.187C330.187 117.66 330.987 117.03 332.177 117.03C333.297 117.03 334.117 117.59 334.117 118.87V122H333.537L333.447 121.15C333.147 121.76 332.487 122.12 331.667 122.12ZM331.827 121.56C332.847 121.56 333.437 120.85 333.437 119.8V119.54L332.007 119.65C331.097 119.73 330.727 120.13 330.727 120.67C330.727 121.26 331.167 121.56 331.827 121.56ZM334.904 124.11V123.54H335.434C335.854 123.54 336.274 123.51 336.514 122.86L336.724 122.29L334.764 117.16H335.494L337.054 121.38L338.584 117.16H339.294L337.074 123.11C336.794 123.87 336.324 124.18 335.634 124.18C335.344 124.18 335.124 124.16 334.904 124.11Z" fill="black"/>
<defs>
<filter id="filter0_d_118_165" x="0.700001" y="0.700001" width="385.6" height="203.6" filterUnits="userSpaceOnUse" color-interpolation-filters="sRGB">
<feFlood flood-opacity="0" result="BackgroundImageFix"/>
<feColorMatrix in="SourceAlpha" type="matrix" values="0 0 0 0 0 0 0 0 0 0 0 0 0 0 0 0 0 0 127 0" result="hardAlpha"/>
<feMorphology radius="10" operator="dilate" in="SourceAlpha" result="effect1_dropShadow_118_165"/>
<feOffset/>
<feGaussianBlur stdDeviation="13.65"/>
<feComposite in2="hardAlpha" operator="out"/>
<feColorMatrix type="matrix" values="0 0 0 0 0 0 0 0 0 0 0 0 0 0 0 0 0 0 0.07 0"/>
<feBlend mode="normal" in2="BackgroundImageFix" result="effect1_dropShadow_118_165"/>
<feBlend mode="normal" in="SourceGraphic" in2="effect1_dropShadow_118_165" result="shape"/>
</filter>
</defs>
</svg>
