<svg width="387" height="300" viewBox="0 0 387 300" fill="none" xmlns="http://www.w3.org/2000/svg">
<g filter="url(#filter0_d_118_362)">
<rect x="38" y="38" width="311" height="224" rx="6" fill="white"/>
</g>
<path d="M53.18 59.472H50.926V63H49.134V52.766H53.18C55.238 52.766 56.568 54.11 56.568 56.112C56.568 58.086 55.224 59.472 53.18 59.472ZM52.83 54.362H50.926V57.876H52.802C54.034 57.876 54.692 57.218 54.692 56.098C54.692 54.978 54.02 54.362 52.83 54.362ZM60.5756 63.182C58.5176 63.182 57.0756 61.684 57.0756 59.542C57.0756 57.372 58.4896 55.874 60.5196 55.874C62.5916 55.874 63.9076 57.26 63.9076 59.416V59.934L58.6996 59.948C58.8256 61.166 59.4696 61.782 60.6036 61.782C61.5416 61.782 62.1576 61.418 62.3536 60.76H63.9356C63.6416 62.272 62.3816 63.182 60.5756 63.182ZM60.5336 57.274C59.5256 57.274 58.9096 57.82 58.7416 58.856H62.2136C62.2136 57.904 61.5556 57.274 60.5336 57.274ZM67.2642 63.182C65.7942 63.182 64.8982 62.328 64.8982 61.026C64.8982 59.752 65.8222 58.954 67.4602 58.828L69.5322 58.674V58.52C69.5322 57.582 68.9722 57.204 68.1042 57.204C67.0962 57.204 66.5362 57.624 66.5362 58.352H65.0802C65.0802 56.854 66.3122 55.874 68.1882 55.874C70.0502 55.874 71.1982 56.882 71.1982 58.8V63H69.7002L69.5742 61.978C69.2802 62.692 68.3422 63.182 67.2642 63.182ZM67.8242 61.894C68.8742 61.894 69.5462 61.264 69.5462 60.2V59.836L68.1042 59.948C67.0402 60.046 66.6342 60.396 66.6342 60.956C66.6342 61.586 67.0542 61.894 67.8242 61.894ZM74.5981 63H72.9041V52.584H74.5981V58.982L77.2861 56.084H79.4281L76.7961 58.828L79.3721 63H77.4121L75.6061 60.088L74.5981 61.138V63ZM86.2268 63H84.4348V52.766H86.2268V56.994H90.7628V52.766H92.5548V63H90.7628V58.66H86.2268V63ZM94.1674 59.528C94.1674 57.372 95.7214 55.888 97.8634 55.888C100.005 55.888 101.559 57.372 101.559 59.528C101.559 61.684 100.005 63.168 97.8634 63.168C95.7214 63.168 94.1674 61.684 94.1674 59.528ZM95.8754 59.528C95.8754 60.788 96.6874 61.642 97.8634 61.642C99.0394 61.642 99.8514 60.788 99.8514 59.528C99.8514 58.268 99.0394 57.414 97.8634 57.414C96.6874 57.414 95.8754 58.268 95.8754 59.528ZM107.439 56.084H109.147V63H107.565L107.439 62.076C107.019 62.734 106.123 63.182 105.199 63.182C103.603 63.182 102.665 62.104 102.665 60.41V56.084H104.373V59.808C104.373 61.124 104.891 61.656 105.843 61.656C106.921 61.656 107.439 61.026 107.439 59.71V56.084ZM115.251 56.056V57.638H114.621C113.389 57.638 112.619 58.296 112.619 59.64V63H110.911V56.098H112.521L112.619 57.106C112.913 56.42 113.571 55.958 114.495 55.958C114.733 55.958 114.971 55.986 115.251 56.056ZM115.875 60.9H117.499C117.513 61.502 117.961 61.88 118.745 61.88C119.543 61.88 119.977 61.558 119.977 61.054C119.977 60.704 119.795 60.452 119.179 60.312L117.933 60.018C116.687 59.738 116.085 59.15 116.085 58.044C116.085 56.686 117.233 55.874 118.829 55.874C120.383 55.874 121.433 56.77 121.447 58.114H119.823C119.809 57.526 119.417 57.148 118.759 57.148C118.087 57.148 117.695 57.456 117.695 57.974C117.695 58.366 118.003 58.618 118.591 58.758L119.837 59.052C120.999 59.318 121.587 59.85 121.587 60.914C121.587 62.314 120.397 63.182 118.689 63.182C116.967 63.182 115.875 62.258 115.875 60.9ZM127.795 63H125.933L129.629 52.766H131.463L135.159 63H133.269L132.443 60.634H128.621L127.795 63ZM130.315 55.818L129.153 59.122H131.925L130.749 55.818C130.665 55.552 130.567 55.244 130.539 55.034C130.497 55.23 130.413 55.538 130.315 55.818ZM137.899 63H136.191V56.084H137.773L137.913 56.98C138.347 56.28 139.187 55.874 140.125 55.874C141.861 55.874 142.757 56.952 142.757 58.744V63H141.049V59.15C141.049 57.988 140.475 57.428 139.593 57.428C138.543 57.428 137.899 58.156 137.899 59.276V63ZM146.493 63.182C145.023 63.182 144.127 62.328 144.127 61.026C144.127 59.752 145.051 58.954 146.689 58.828L148.761 58.674V58.52C148.761 57.582 148.201 57.204 147.333 57.204C146.325 57.204 145.765 57.624 145.765 58.352H144.309C144.309 56.854 145.541 55.874 147.417 55.874C149.279 55.874 150.427 56.882 150.427 58.8V63H148.929L148.803 61.978C148.509 62.692 147.571 63.182 146.493 63.182ZM147.053 61.894C148.103 61.894 148.775 61.264 148.775 60.2V59.836L147.333 59.948C146.269 60.046 145.863 60.396 145.863 60.956C145.863 61.586 146.283 61.894 147.053 61.894ZM153.827 63H152.133V52.584H153.827V63ZM155.016 66.206V64.778H156.038C156.71 64.778 157.13 64.624 157.424 63.812L157.62 63.294L154.834 56.084H156.64L158.418 61.124L160.294 56.084H162.058L158.67 64.54C158.152 65.828 157.424 66.36 156.29 66.36C155.814 66.36 155.394 66.304 155.016 66.206ZM162.346 60.9H163.97C163.984 61.502 164.432 61.88 165.216 61.88C166.014 61.88 166.448 61.558 166.448 61.054C166.448 60.704 166.266 60.452 165.65 60.312L164.404 60.018C163.158 59.738 162.556 59.15 162.556 58.044C162.556 56.686 163.704 55.874 165.3 55.874C166.854 55.874 167.904 56.77 167.918 58.114H166.294C166.28 57.526 165.888 57.148 165.23 57.148C164.558 57.148 164.166 57.456 164.166 57.974C164.166 58.366 164.474 58.618 165.062 58.758L166.308 59.052C167.47 59.318 168.058 59.85 168.058 60.914C168.058 62.314 166.868 63.182 165.16 63.182C163.438 63.182 162.346 62.258 162.346 60.9ZM170.213 54.698C169.625 54.698 169.163 54.236 169.163 53.662C169.163 53.088 169.625 52.64 170.213 52.64C170.773 52.64 171.235 53.088 171.235 53.662C171.235 54.236 170.773 54.698 170.213 54.698ZM169.359 63V56.084H171.067V63H169.359ZM172.299 60.9H173.923C173.937 61.502 174.385 61.88 175.169 61.88C175.967 61.88 176.401 61.558 176.401 61.054C176.401 60.704 176.219 60.452 175.603 60.312L174.357 60.018C173.111 59.738 172.509 59.15 172.509 58.044C172.509 56.686 173.657 55.874 175.253 55.874C176.807 55.874 177.857 56.77 177.871 58.114H176.247C176.233 57.526 175.841 57.148 175.183 57.148C174.511 57.148 174.119 57.456 174.119 57.974C174.119 58.366 174.427 58.618 175.015 58.758L176.261 59.052C177.423 59.318 178.011 59.85 178.011 60.914C178.011 62.314 176.821 63.182 175.113 63.182C173.391 63.182 172.299 62.258 172.299 60.9Z" fill="black"/>
<path d="M50.28 81L48.15 73.84H48.9L50.35 78.76C50.45 79.11 50.54 79.47 50.63 79.94C50.75 79.42 50.85 79.11 50.96 78.76L52.52 73.84H53.27L54.83 78.76C54.94 79.12 55.04 79.48 55.15 79.94C55.26 79.39 55.35 79.04 55.43 78.77L56.91 73.84H57.64L55.49 81H54.81L52.89 74.92L50.97 81H50.28ZM59.1952 80.99H58.5052V73.71H59.1952V77C59.5052 76.42 60.0952 76.03 60.9052 76.03C62.1752 76.03 62.7452 76.82 62.7452 78.04V81H62.0552V78.19C62.0552 77.06 61.5252 76.66 60.7752 76.66C59.7352 76.66 59.1952 77.43 59.1952 78.36V80.99ZM66.1504 81.12C64.7304 81.12 63.7804 80.1 63.7804 78.58C63.7804 77.07 64.7204 76.03 66.1004 76.03C67.4104 76.03 68.3004 76.96 68.3004 78.33V78.67H64.4504C64.5004 79.85 65.1204 80.53 66.1604 80.53C66.9504 80.53 67.4604 80.19 67.6404 79.55H68.3004C68.0404 80.57 67.2904 81.12 66.1504 81.12ZM66.1004 76.62C65.1904 76.62 64.5904 77.22 64.4704 78.17H67.6104C67.6104 77.24 67.0104 76.62 66.1004 76.62ZM70.0936 81H69.4036V76.16H70.0036L70.1036 77C70.4236 76.38 71.0636 76.03 71.7636 76.03C73.0936 76.03 73.6436 76.82 73.6436 78.04V81H72.9536V78.19C72.9536 77.06 72.4436 76.66 71.6436 76.66C70.6536 76.66 70.0936 77.38 70.0936 78.47V81ZM79.6923 81.12C78.2823 81.12 77.4523 80.04 77.4523 78.59C77.4523 77.13 78.2823 76.03 79.7223 76.03C80.5223 76.03 81.1623 76.38 81.5023 77.08V73.71H82.1923V81H81.5923L81.5223 80.01C81.1823 80.76 80.5023 81.12 79.6923 81.12ZM79.8123 80.49C80.8723 80.49 81.4923 79.69 81.4923 78.57C81.4923 77.46 80.8723 76.65 79.8123 76.65C78.7623 76.65 78.1523 77.46 78.1523 78.57C78.1523 79.69 78.7623 80.49 79.8123 80.49ZM83.2921 78.58C83.2921 77.1 84.3321 76.03 85.7521 76.03C87.1721 76.03 88.2121 77.1 88.2121 78.58C88.2121 80.05 87.1721 81.12 85.7521 81.12C84.3321 81.12 83.2921 80.05 83.2921 78.58ZM83.9921 78.57C83.9921 79.71 84.7121 80.5 85.7521 80.5C86.7821 80.5 87.5121 79.71 87.5121 78.57C87.5121 77.45 86.7821 76.65 85.7521 76.65C84.7121 76.65 83.9921 77.45 83.9921 78.57ZM91.5991 83.11V82.54H92.1291C92.5491 82.54 92.9691 82.51 93.2091 81.86L93.4191 81.29L91.4591 76.16H92.1891L93.7491 80.38L95.2791 76.16H95.9891L93.7691 82.11C93.4891 82.87 93.0191 83.18 92.3291 83.18C92.0391 83.18 91.8191 83.16 91.5991 83.11ZM96.2902 78.58C96.2902 77.1 97.3302 76.03 98.7502 76.03C100.17 76.03 101.21 77.1 101.21 78.58C101.21 80.05 100.17 81.12 98.7502 81.12C97.3302 81.12 96.2902 80.05 96.2902 78.58ZM96.9902 78.57C96.9902 79.71 97.7102 80.5 98.7502 80.5C99.7802 80.5 100.51 79.71 100.51 78.57C100.51 77.45 99.7802 76.65 98.7502 76.65C97.7102 76.65 96.9902 77.45 96.9902 78.57ZM105.597 76.16H106.287V81H105.687L105.597 80.18C105.327 80.74 104.657 81.12 103.897 81.12C102.757 81.12 102.137 80.34 102.137 79.16V76.15H102.837V78.94C102.837 80.09 103.347 80.5 104.117 80.5C105.047 80.5 105.597 79.88 105.597 78.73V76.16ZM110.254 76.1V76.72H109.874C108.984 76.72 108.414 77.32 108.414 78.24V81H107.724V76.16H108.374L108.424 76.91C108.614 76.39 109.124 76.05 109.804 76.05C109.954 76.05 110.084 76.06 110.254 76.1ZM113.605 78.59C113.605 77.07 114.535 76.03 115.945 76.03C117.065 76.03 117.885 76.68 118.075 77.68H117.385C117.205 77.01 116.625 76.64 115.955 76.64C114.975 76.64 114.285 77.39 114.285 78.58C114.285 79.73 114.925 80.5 115.905 80.5C116.625 80.5 117.205 80.1 117.395 79.48H118.095C117.865 80.47 117.005 81.12 115.905 81.12C114.535 81.12 113.605 80.11 113.605 78.59ZM122.54 76.16H123.23V81H122.63L122.54 80.18C122.27 80.74 121.6 81.12 120.84 81.12C119.7 81.12 119.08 80.34 119.08 79.16V76.15H119.78V78.94C119.78 80.09 120.29 80.5 121.06 80.5C121.99 80.5 122.54 79.88 122.54 78.73V76.16ZM124.16 79.64H124.82C124.82 80.2 125.24 80.55 125.92 80.55C126.67 80.55 127.11 80.23 127.11 79.71C127.11 79.31 126.91 79.08 126.34 78.94L125.51 78.73C124.67 78.52 124.26 78.08 124.26 77.42C124.26 76.57 124.97 76.03 126.01 76.03C127.03 76.03 127.69 76.59 127.72 77.49H127.05C127.03 76.93 126.64 76.6 125.99 76.6C125.31 76.6 124.93 76.89 124.93 77.41C124.93 77.78 125.19 78.04 125.72 78.17L126.55 78.38C127.39 78.59 127.77 78.98 127.77 79.68C127.77 80.55 127.03 81.12 125.93 81.12C124.84 81.12 124.16 80.54 124.16 79.64ZM130.016 81H129.336V76.74H128.366V76.16H129.336V74.63H130.016V76.16H130.986V76.74H130.016V81ZM131.495 78.58C131.495 77.1 132.535 76.03 133.955 76.03C135.375 76.03 136.415 77.1 136.415 78.58C136.415 80.05 135.375 81.12 133.955 81.12C132.535 81.12 131.495 80.05 131.495 78.58ZM132.195 78.57C132.195 79.71 132.915 80.5 133.955 80.5C134.985 80.5 135.715 79.71 135.715 78.57C135.715 77.45 134.985 76.65 133.955 76.65C132.915 76.65 132.195 77.45 132.195 78.57ZM138.209 81H137.519V76.16H138.119L138.199 76.85C138.439 76.34 138.979 76.03 139.659 76.03C140.419 76.03 140.989 76.43 141.219 77.06C141.439 76.43 142.029 76.03 142.809 76.03C143.859 76.03 144.549 76.71 144.549 77.83V81H143.879V77.97C143.879 77.14 143.419 76.65 142.679 76.65C141.869 76.65 141.389 77.26 141.389 78.01V81H140.709V77.96C140.709 77.14 140.239 76.66 139.509 76.66C138.699 76.66 138.209 77.26 138.209 78V81ZM147.967 81.12C146.547 81.12 145.597 80.1 145.597 78.58C145.597 77.07 146.537 76.03 147.917 76.03C149.227 76.03 150.117 76.96 150.117 78.33V78.67H146.267C146.317 79.85 146.937 80.53 147.977 80.53C148.767 80.53 149.277 80.19 149.457 79.55H150.117C149.857 80.57 149.107 81.12 147.967 81.12ZM147.917 76.62C147.007 76.62 146.407 77.22 146.287 78.17H149.427C149.427 77.24 148.827 76.62 147.917 76.62ZM153.75 76.1V76.72H153.37C152.48 76.72 151.91 77.32 151.91 78.24V81H151.22V76.16H151.87L151.92 76.91C152.11 76.39 152.62 76.05 153.3 76.05C153.45 76.05 153.58 76.06 153.75 76.1ZM158.161 81H157.471V73.71H158.161V81ZM161.658 81.12C160.238 81.12 159.288 80.1 159.288 78.58C159.288 77.07 160.228 76.03 161.608 76.03C162.918 76.03 163.808 76.96 163.808 78.33V78.67H159.958C160.008 79.85 160.628 80.53 161.668 80.53C162.458 80.53 162.968 80.19 163.148 79.55H163.808C163.548 80.57 162.798 81.12 161.658 81.12ZM161.608 76.62C160.698 76.62 160.098 77.22 159.978 78.17H163.118C163.118 77.24 162.518 76.62 161.608 76.62ZM166.253 81.12C165.223 81.12 164.613 80.54 164.613 79.69C164.613 78.8 165.293 78.24 166.423 78.15L168.023 78.02V77.86C168.023 76.91 167.453 76.61 166.743 76.61C165.903 76.61 165.403 76.99 165.403 77.64H164.773C164.773 76.66 165.573 76.03 166.763 76.03C167.883 76.03 168.703 76.59 168.703 77.87V81H168.123L168.033 80.15C167.733 80.76 167.073 81.12 166.253 81.12ZM166.413 80.56C167.433 80.56 168.023 79.85 168.023 78.8V78.54L166.593 78.65C165.683 78.73 165.313 79.13 165.313 79.67C165.313 80.26 165.753 80.56 166.413 80.56ZM171.242 81L169.262 76.16H170.002L171.252 79.28C171.382 79.63 171.512 79.96 171.602 80.28C171.692 79.95 171.822 79.63 171.962 79.28L173.232 76.16H173.942L171.932 81H171.242ZM176.57 81.12C175.15 81.12 174.2 80.1 174.2 78.58C174.2 77.07 175.14 76.03 176.52 76.03C177.83 76.03 178.72 76.96 178.72 78.33V78.67H174.87C174.92 79.85 175.54 80.53 176.58 80.53C177.37 80.53 177.88 80.19 178.06 79.55H178.72C178.46 80.57 177.71 81.12 176.57 81.12ZM176.52 76.62C175.61 76.62 175.01 77.22 174.89 78.17H178.03C178.03 77.24 177.43 76.62 176.52 76.62ZM183.707 81H183.027V76.74H182.057V76.16H183.027V74.63H183.707V76.16H184.677V76.74H183.707V81ZM186.265 80.99H185.575V73.71H186.265V77C186.575 76.42 187.165 76.03 187.975 76.03C189.245 76.03 189.815 76.82 189.815 78.04V81H189.125V78.19C189.125 77.06 188.595 76.66 187.845 76.66C186.805 76.66 186.265 77.43 186.265 78.36V80.99ZM193.221 81.12C191.801 81.12 190.851 80.1 190.851 78.58C190.851 77.07 191.791 76.03 193.171 76.03C194.481 76.03 195.371 76.96 195.371 78.33V78.67H191.521C191.571 79.85 192.191 80.53 193.231 80.53C194.021 80.53 194.531 80.19 194.711 79.55H195.371C195.111 80.57 194.361 81.12 193.221 81.12ZM193.171 76.62C192.261 76.62 191.661 77.22 191.541 78.17H194.681C194.681 77.24 194.081 76.62 193.171 76.62ZM199.937 81H199.247V76.16H199.847L199.927 76.85C200.167 76.34 200.707 76.03 201.387 76.03C202.147 76.03 202.717 76.43 202.947 77.06C203.167 76.43 203.757 76.03 204.537 76.03C205.587 76.03 206.277 76.71 206.277 77.83V81H205.607V77.97C205.607 77.14 205.147 76.65 204.407 76.65C203.597 76.65 203.117 77.26 203.117 78.01V81H202.437V77.96C202.437 77.14 201.967 76.66 201.237 76.66C200.427 76.66 199.937 77.26 199.937 78V81ZM207.325 78.58C207.325 77.1 208.365 76.03 209.785 76.03C211.205 76.03 212.245 77.1 212.245 78.58C212.245 80.05 211.205 81.12 209.785 81.12C208.365 81.12 207.325 80.05 207.325 78.58ZM208.025 78.57C208.025 79.71 208.745 80.5 209.785 80.5C210.815 80.5 211.545 79.71 211.545 78.57C211.545 77.45 210.815 76.65 209.785 76.65C208.745 76.65 208.025 77.45 208.025 78.57ZM212.939 79.64H213.599C213.599 80.2 214.019 80.55 214.699 80.55C215.449 80.55 215.889 80.23 215.889 79.71C215.889 79.31 215.689 79.08 215.119 78.94L214.289 78.73C213.449 78.52 213.039 78.08 213.039 77.42C213.039 76.57 213.749 76.03 214.789 76.03C215.809 76.03 216.469 76.59 216.499 77.49H215.829C215.809 76.93 215.419 76.6 214.769 76.6C214.089 76.6 213.709 76.89 213.709 77.41C213.709 77.78 213.969 78.04 214.499 78.17L215.329 78.38C216.169 78.59 216.549 78.98 216.549 79.68C216.549 80.55 215.809 81.12 214.709 81.12C213.619 81.12 212.939 80.54 212.939 79.64ZM218.795 81H218.115V76.74H217.145V76.16H218.115V74.63H218.795V76.16H219.765V76.74H218.795V81ZM222.897 76.16H223.637V75.22C223.637 74.13 224.237 73.71 224.977 73.71C225.147 73.71 225.347 73.72 225.507 73.75V74.34H225.097C224.487 74.34 224.327 74.65 224.327 75.22V76.16H225.467V76.74H224.327V81H223.637V76.74H222.897V76.16ZM228.289 81.12C226.869 81.12 225.919 80.1 225.919 78.58C225.919 77.07 226.859 76.03 228.239 76.03C229.549 76.03 230.439 76.96 230.439 78.33V78.67H226.589C226.639 79.85 227.259 80.53 228.299 80.53C229.089 80.53 229.599 80.19 229.779 79.55H230.439C230.179 80.57 229.429 81.12 228.289 81.12ZM228.239 76.62C227.329 76.62 226.729 77.22 226.609 78.17H229.749C229.749 77.24 229.149 76.62 228.239 76.62ZM233.572 81.12C232.152 81.12 231.202 80.1 231.202 78.58C231.202 77.07 232.142 76.03 233.522 76.03C234.832 76.03 235.722 76.96 235.722 78.33V78.67H231.872C231.922 79.85 232.542 80.53 233.582 80.53C234.372 80.53 234.882 80.19 235.062 79.55H235.722C235.462 80.57 234.712 81.12 233.572 81.12ZM233.522 76.62C232.612 76.62 232.012 77.22 231.892 78.17H235.032C235.032 77.24 234.432 76.62 233.522 76.62ZM238.725 81.12C237.315 81.12 236.485 80.04 236.485 78.59C236.485 77.13 237.315 76.03 238.755 76.03C239.555 76.03 240.195 76.38 240.535 77.08V73.71H241.225V81H240.625L240.555 80.01C240.215 80.76 239.535 81.12 238.725 81.12ZM238.845 80.49C239.905 80.49 240.525 79.69 240.525 78.57C240.525 77.46 239.905 76.65 238.845 76.65C237.795 76.65 237.185 77.46 237.185 78.57C237.185 79.69 237.795 80.49 238.845 80.49ZM243.265 81H242.665V73.71H243.355V77.1C243.695 76.39 244.355 76.03 245.175 76.03C246.585 76.03 247.405 77.13 247.405 78.59C247.405 80.04 246.565 81.12 245.155 81.12C244.345 81.12 243.675 80.76 243.335 80.01L243.265 81ZM243.365 78.57C243.365 79.69 243.985 80.49 245.045 80.49C246.095 80.49 246.705 79.69 246.705 78.57C246.705 77.46 246.095 76.65 245.045 76.65C243.985 76.65 243.365 77.46 243.365 78.57ZM249.895 81.12C248.865 81.12 248.255 80.54 248.255 79.69C248.255 78.8 248.935 78.24 250.065 78.15L251.665 78.02V77.86C251.665 76.91 251.095 76.61 250.385 76.61C249.545 76.61 249.045 76.99 249.045 77.64H248.415C248.415 76.66 249.215 76.03 250.405 76.03C251.525 76.03 252.345 76.59 252.345 77.87V81H251.765L251.675 80.15C251.375 80.76 250.715 81.12 249.895 81.12ZM250.055 80.56C251.075 80.56 251.665 79.85 251.665 78.8V78.54L250.235 78.65C249.325 78.73 248.955 79.13 248.955 79.67C248.955 80.26 249.395 80.56 250.055 80.56ZM253.39 78.59C253.39 77.07 254.32 76.03 255.73 76.03C256.85 76.03 257.67 76.68 257.86 77.68H257.17C256.99 77.01 256.41 76.64 255.74 76.64C254.76 76.64 254.07 77.39 254.07 78.58C254.07 79.73 254.71 80.5 255.69 80.5C256.41 80.5 256.99 80.1 257.18 79.48H257.88C257.65 80.47 256.79 81.12 255.69 81.12C254.32 81.12 253.39 80.11 253.39 78.59ZM259.645 81H258.955V73.71H259.645V78.66L262.045 76.16H262.915L261.055 78.09L262.925 81H262.125L260.585 78.58L259.645 79.55V81ZM265.679 79.36H265.029V79.1C265.029 78.28 265.559 77.84 266.119 77.42C266.639 77.02 267.129 76.61 267.129 75.88C267.129 75.03 266.539 74.37 265.619 74.37C264.749 74.37 264.069 75.06 264.069 75.93H263.369C263.369 74.68 264.359 73.71 265.619 73.71C266.989 73.71 267.839 74.64 267.839 75.86C267.839 76.89 267.179 77.4 266.589 77.84C266.029 78.24 265.679 78.57 265.679 79.1V79.36ZM265.399 81.14C265.049 81.14 264.769 80.85 264.769 80.51C264.769 80.17 265.049 79.89 265.399 79.89C265.739 79.89 266.019 80.17 266.019 80.51C266.019 80.85 265.739 81.14 265.399 81.14Z" fill="black"/>
<path d="M49.59 175H48.87V167.84H49.59V171.03H53.46V167.84H54.17V175H53.46V171.7H49.59V175ZM55.4308 172.58C55.4308 171.1 56.4708 170.03 57.8908 170.03C59.3108 170.03 60.3508 171.1 60.3508 172.58C60.3508 174.05 59.3108 175.12 57.8908 175.12C56.4708 175.12 55.4308 174.05 55.4308 172.58ZM56.1308 172.57C56.1308 173.71 56.8508 174.5 57.8908 174.5C58.9208 174.5 59.6508 173.71 59.6508 172.57C59.6508 171.45 58.9208 170.65 57.8908 170.65C56.8508 170.65 56.1308 171.45 56.1308 172.57ZM64.7372 170.16H65.4272V175H64.8272L64.7372 174.18C64.4672 174.74 63.7972 175.12 63.0372 175.12C61.8972 175.12 61.2772 174.34 61.2772 173.16V170.15H61.9772V172.94C61.9772 174.09 62.4872 174.5 63.2572 174.5C64.1872 174.5 64.7372 173.88 64.7372 172.73V170.16ZM69.3945 170.1V170.72H69.0145C68.1245 170.72 67.5545 171.32 67.5545 172.24V175H66.8645V170.16H67.5145L67.5645 170.91C67.7545 170.39 68.2645 170.05 68.9445 170.05C69.0945 170.05 69.2245 170.06 69.3945 170.1ZM71.0318 175H70.3418V167.71H71.0318V175ZM72.0093 177.11V176.54H72.5393C72.9593 176.54 73.3793 176.51 73.6193 175.86L73.8293 175.29L71.8693 170.16H72.5993L74.1593 174.38L75.6893 170.16H76.3993L74.1793 176.11C73.8993 176.87 73.4293 177.18 72.7393 177.18C72.4493 177.18 72.2293 177.16 72.0093 177.11ZM80.1298 175H79.3998L82.0298 167.84H82.9198L85.5798 175H84.8298L84.1298 173.1H80.8298L80.1298 175ZM82.3798 168.85L81.0498 172.47H83.8998L82.5598 168.85C82.5298 168.75 82.4798 168.63 82.4698 168.56C82.4598 168.62 82.4198 168.75 82.3798 168.85ZM85.9191 172.59C85.9191 171.07 86.8491 170.03 88.2591 170.03C89.3791 170.03 90.1991 170.68 90.3891 171.68H89.6991C89.5191 171.01 88.9391 170.64 88.2691 170.64C87.2891 170.64 86.5991 171.39 86.5991 172.58C86.5991 173.73 87.2391 174.5 88.2191 174.5C88.9391 174.5 89.5191 174.1 89.7091 173.48H90.4091C90.1791 174.47 89.3191 175.12 88.2191 175.12C86.8491 175.12 85.9191 174.11 85.9191 172.59ZM92.5644 175H91.8844V170.74H90.9144V170.16H91.8844V168.63H92.5644V170.16H93.5344V170.74H92.5644V175ZM94.7729 168.83C94.4929 168.83 94.2629 168.6 94.2629 168.32C94.2629 168.04 94.4929 167.8 94.7729 167.8C95.0529 167.8 95.2929 168.04 95.2929 168.32C95.2929 168.6 95.0529 168.83 94.7729 168.83ZM94.4329 175V170.16H95.1229V175H94.4329ZM97.9118 175L95.9318 170.16H96.6718L97.9218 173.28C98.0518 173.63 98.1818 173.96 98.2718 174.28C98.3618 173.95 98.4918 173.63 98.6318 173.28L99.9018 170.16H100.612L98.6018 175H97.9118ZM101.765 168.83C101.485 168.83 101.255 168.6 101.255 168.32C101.255 168.04 101.485 167.8 101.765 167.8C102.045 167.8 102.285 168.04 102.285 168.32C102.285 168.6 102.045 168.83 101.765 168.83ZM101.425 175V170.16H102.115V175H101.425ZM104.664 175H103.984V170.74H103.014V170.16H103.984V168.63H104.664V170.16H105.634V170.74H104.664V175ZM106.043 177.11V176.54H106.573C106.993 176.54 107.413 176.51 107.653 175.86L107.863 175.29L105.903 170.16H106.633L108.193 174.38L109.723 170.16H110.433L108.213 176.11C107.933 176.87 107.463 177.18 106.773 177.18C106.483 177.18 106.263 177.16 106.043 177.11Z" fill="black"/>
<rect x="52.25" y="101.25" width="137.5" height="51.5" rx="3.75" fill="#F5F5FF" stroke="#F2F2F2" stroke-width="0.5"/>
<path d="M60.96 111.984H59.672V114H58.648V108.152H60.96C62.136 108.152 62.896 108.92 62.896 110.064C62.896 111.192 62.128 111.984 60.96 111.984ZM60.76 109.064H59.672V111.072H60.744C61.448 111.072 61.824 110.696 61.824 110.056C61.824 109.416 61.44 109.064 60.76 109.064ZM65.1861 114.104C64.0101 114.104 63.1861 113.248 63.1861 112.024C63.1861 110.784 63.9941 109.928 65.1541 109.928C66.3381 109.928 67.0901 110.72 67.0901 111.952V112.248L64.1141 112.256C64.1861 112.952 64.5541 113.304 65.2021 113.304C65.7381 113.304 66.0901 113.096 66.2021 112.72H67.1061C66.9381 113.584 66.2181 114.104 65.1861 114.104ZM65.1621 110.728C64.5861 110.728 64.2341 111.04 64.1381 111.632H66.1221C66.1221 111.088 65.7461 110.728 65.1621 110.728ZM69.0081 114.104C68.1681 114.104 67.6561 113.616 67.6561 112.872C67.6561 112.144 68.1841 111.688 69.1201 111.616L70.3041 111.528V111.44C70.3041 110.904 69.9841 110.688 69.4881 110.688C68.9121 110.688 68.5921 110.928 68.5921 111.344H67.7601C67.7601 110.488 68.4641 109.928 69.5361 109.928C70.6001 109.928 71.2561 110.504 71.2561 111.6V114H70.4001L70.3281 113.416C70.1601 113.824 69.6241 114.104 69.0081 114.104ZM69.3281 113.368C69.9281 113.368 70.3121 113.008 70.3121 112.4V112.192L69.4881 112.256C68.8801 112.312 68.6481 112.512 68.6481 112.832C68.6481 113.192 68.8881 113.368 69.3281 113.368ZM73.1989 114H72.2309V108.048H73.1989V111.704L74.7349 110.048H75.9589L74.4549 111.616L75.9269 114H74.8069L73.7749 112.336L73.1989 112.936V114ZM79.8439 114H78.8199V108.152H79.8439V110.568H82.4359V108.152H83.4599V114H82.4359V111.52H79.8439V114ZM84.3814 112.016C84.3814 110.784 85.2694 109.936 86.4934 109.936C87.7174 109.936 88.6054 110.784 88.6054 112.016C88.6054 113.248 87.7174 114.096 86.4934 114.096C85.2694 114.096 84.3814 113.248 84.3814 112.016ZM85.3574 112.016C85.3574 112.736 85.8214 113.224 86.4934 113.224C87.1654 113.224 87.6294 112.736 87.6294 112.016C87.6294 111.296 87.1654 110.808 86.4934 110.808C85.8214 110.808 85.3574 111.296 85.3574 112.016ZM91.9653 110.048H92.9413V114H92.0373L91.9653 113.472C91.7253 113.848 91.2133 114.104 90.6853 114.104C89.7733 114.104 89.2373 113.488 89.2373 112.52V110.048H90.2133V112.176C90.2133 112.928 90.5093 113.232 91.0533 113.232C91.6693 113.232 91.9653 112.872 91.9653 112.12V110.048ZM96.4293 110.032V110.936H96.0693C95.3653 110.936 94.9253 111.312 94.9253 112.08V114H93.9493V110.056H94.8693L94.9253 110.632C95.0933 110.24 95.4693 109.976 95.9973 109.976C96.1333 109.976 96.2693 109.992 96.4293 110.032ZM96.7859 112.8H97.7139C97.7219 113.144 97.9779 113.36 98.4259 113.36C98.8819 113.36 99.1299 113.176 99.1299 112.888C99.1299 112.688 99.0259 112.544 98.6739 112.464L97.9619 112.296C97.2499 112.136 96.9059 111.8 96.9059 111.168C96.9059 110.392 97.5619 109.928 98.4739 109.928C99.3619 109.928 99.9619 110.44 99.9699 111.208H99.0419C99.0339 110.872 98.8099 110.656 98.4339 110.656C98.0499 110.656 97.8259 110.832 97.8259 111.128C97.8259 111.352 98.0019 111.496 98.3379 111.576L99.0499 111.744C99.7139 111.896 100.05 112.2 100.05 112.808C100.05 113.608 99.3699 114.104 98.3939 114.104C97.4099 114.104 96.7859 113.576 96.7859 112.8Z" fill="black"/>
<path d="M58.522 146H58.084L59.662 141.704H60.196L61.792 146H61.342L60.922 144.86H58.942L58.522 146ZM59.872 142.31L59.074 144.482H60.784L59.98 142.31C59.962 142.25 59.932 142.178 59.926 142.136C59.92 142.172 59.896 142.25 59.872 142.31ZM62.9158 146L61.7278 143.096H62.1718L62.9218 144.968C62.9998 145.178 63.0778 145.376 63.1318 145.568C63.1858 145.37 63.2638 145.178 63.3478 144.968L64.1098 143.096H64.5358L63.3298 146H62.9158ZM64.6969 144.464C64.6969 143.672 65.2069 143.018 66.0589 143.018C66.5629 143.018 66.9469 143.252 67.1329 143.678L67.1749 143.096H67.5349V145.91C67.5349 146.774 66.9829 147.338 66.1309 147.338C65.3869 147.338 64.8649 146.918 64.7509 146.216H65.1649C65.2549 146.684 65.6149 146.96 66.1369 146.96C66.7309 146.96 67.1269 146.558 67.1269 145.952V145.262C66.9289 145.67 66.5269 145.91 66.0289 145.91C65.2009 145.91 64.6969 145.256 64.6969 144.464ZM65.1109 144.458C65.1109 145.052 65.4769 145.538 66.0889 145.538C66.7189 145.538 67.0909 145.082 67.0909 144.458C67.0909 143.84 66.7309 143.384 66.0949 143.384C65.4709 143.384 65.1109 143.87 65.1109 144.458ZM68.7528 146.066C68.5488 146.066 68.3748 145.898 68.3748 145.7C68.3748 145.496 68.5488 145.322 68.7528 145.322C68.9568 145.322 69.1308 145.496 69.1308 145.7C69.1308 145.898 68.9568 146.066 68.7528 146.066ZM72.2872 142.094H71.4112V141.704H72.7012V146H72.2872V142.094ZM74.7231 143.696H74.3811V143.396L75.7071 142.088H73.6491V141.704H76.2531V142.052L74.9691 143.33C75.7731 143.372 76.3491 143.882 76.3491 144.662C76.3491 145.514 75.7251 146.072 74.8551 146.072C74.0091 146.072 73.4391 145.55 73.4391 144.692H73.8651C73.8651 145.31 74.2491 145.682 74.8551 145.682C75.4971 145.682 75.9111 145.274 75.9111 144.65C75.9111 144.062 75.4911 143.696 74.7231 143.696ZM80.2293 143.06V143.432H80.0013C79.4673 143.432 79.1253 143.792 79.1253 144.344V146H78.7113V143.096H79.1013L79.1313 143.546C79.2453 143.234 79.5513 143.03 79.9593 143.03C80.0493 143.03 80.1273 143.036 80.2293 143.06ZM81.8863 146.072C81.0343 146.072 80.4643 145.46 80.4643 144.548C80.4643 143.642 81.0283 143.018 81.8563 143.018C82.6423 143.018 83.1763 143.576 83.1763 144.398V144.602H80.8663C80.8963 145.31 81.2683 145.718 81.8923 145.718C82.3663 145.718 82.6723 145.514 82.7803 145.13H83.1763C83.0203 145.742 82.5703 146.072 81.8863 146.072ZM81.8563 143.372C81.3103 143.372 80.9503 143.732 80.8783 144.302H82.7623C82.7623 143.744 82.4023 143.372 81.8563 143.372ZM83.5923 145.184H83.9883C83.9883 145.52 84.2403 145.73 84.6483 145.73C85.0983 145.73 85.3623 145.538 85.3623 145.226C85.3623 144.986 85.2423 144.848 84.9003 144.764L84.4023 144.638C83.8983 144.512 83.6523 144.248 83.6523 143.852C83.6523 143.342 84.0783 143.018 84.7023 143.018C85.3143 143.018 85.7103 143.354 85.7283 143.894H85.3263C85.3143 143.558 85.0803 143.36 84.6903 143.36C84.2823 143.36 84.0543 143.534 84.0543 143.846C84.0543 144.068 84.2103 144.224 84.5283 144.302L85.0263 144.428C85.5303 144.554 85.7583 144.788 85.7583 145.208C85.7583 145.73 85.3143 146.072 84.6543 146.072C84.0003 146.072 83.5923 145.724 83.5923 145.184ZM86.4398 147.266V143.096H86.7998L86.8418 143.684C87.0458 143.234 87.4538 143.018 87.9398 143.018C88.7798 143.018 89.2838 143.66 89.2838 144.536C89.2838 145.412 88.7978 146.072 87.9398 146.072C87.4478 146.072 87.0578 145.862 86.8538 145.442V147.266H86.4398ZM86.8598 144.548C86.8598 145.214 87.2318 145.7 87.8678 145.7C88.4978 145.7 88.8638 145.214 88.8638 144.548C88.8638 143.876 88.4978 143.396 87.8678 143.396C87.2318 143.396 86.8598 143.876 86.8598 144.548ZM89.7397 144.548C89.7397 143.66 90.3637 143.018 91.2157 143.018C92.0677 143.018 92.6917 143.66 92.6917 144.548C92.6917 145.43 92.0677 146.072 91.2157 146.072C90.3637 146.072 89.7397 145.43 89.7397 144.548ZM90.1597 144.542C90.1597 145.226 90.5917 145.7 91.2157 145.7C91.8337 145.7 92.2717 145.226 92.2717 144.542C92.2717 143.87 91.8337 143.39 91.2157 143.39C90.5917 143.39 90.1597 143.87 90.1597 144.542ZM93.7679 146H93.3539V143.096H93.7139L93.7739 143.6C93.9659 143.228 94.3499 143.018 94.7699 143.018C95.5679 143.018 95.8979 143.492 95.8979 144.224V146H95.4839V144.314C95.4839 143.636 95.1779 143.396 94.6979 143.396C94.1039 143.396 93.7679 143.828 93.7679 144.482V146ZM96.4419 145.184H96.8379C96.8379 145.52 97.0899 145.73 97.4979 145.73C97.9479 145.73 98.2119 145.538 98.2119 145.226C98.2119 144.986 98.0919 144.848 97.7499 144.764L97.2519 144.638C96.7479 144.512 96.5019 144.248 96.5019 143.852C96.5019 143.342 96.9279 143.018 97.5519 143.018C98.1639 143.018 98.5599 143.354 98.5779 143.894H98.1759C98.1639 143.558 97.9299 143.36 97.5399 143.36C97.1319 143.36 96.9039 143.534 96.9039 143.846C96.9039 144.068 97.0599 144.224 97.3779 144.302L97.8759 144.428C98.3799 144.554 98.6079 144.788 98.6079 145.208C98.6079 145.73 98.1639 146.072 97.5039 146.072C96.8499 146.072 96.4419 145.724 96.4419 145.184ZM100.507 146.072C99.6554 146.072 99.0854 145.46 99.0854 144.548C99.0854 143.642 99.6494 143.018 100.477 143.018C101.263 143.018 101.797 143.576 101.797 144.398V144.602H99.4874C99.5174 145.31 99.8894 145.718 100.513 145.718C100.987 145.718 101.293 145.514 101.401 145.13H101.797C101.641 145.742 101.191 146.072 100.507 146.072ZM100.477 143.372C99.9314 143.372 99.5714 143.732 99.4994 144.302H101.383C101.383 143.744 101.023 143.372 100.477 143.372ZM102.213 145.184H102.609C102.609 145.52 102.861 145.73 103.269 145.73C103.719 145.73 103.983 145.538 103.983 145.226C103.983 144.986 103.863 144.848 103.521 144.764L103.023 144.638C102.519 144.512 102.273 144.248 102.273 143.852C102.273 143.342 102.699 143.018 103.323 143.018C103.935 143.018 104.331 143.354 104.349 143.894H103.947C103.935 143.558 103.701 143.36 103.311 143.36C102.903 143.36 102.675 143.534 102.675 143.846C102.675 144.068 102.831 144.224 103.149 144.302L103.647 144.428C104.151 144.554 104.379 144.788 104.379 145.208C104.379 145.73 103.935 146.072 103.275 146.072C102.621 146.072 102.213 145.724 102.213 145.184Z" fill="black"/>
<path d="M60.328 125.608H58.408V124.228H61.804V133H60.328V125.608ZM64.5452 126.808L66.4413 124.228H68.1933L66.0933 127.024C66.3092 126.964 66.5373 126.928 66.7533 126.928C68.5653 126.928 69.7893 128.2 69.7893 129.976C69.7893 131.848 68.3973 133.156 66.5253 133.156C64.6293 133.156 63.2133 131.764 63.2133 129.964C63.2133 128.908 63.5613 128.14 64.5452 126.808ZM64.7853 129.976C64.7853 131.044 65.4933 131.788 66.5253 131.788C67.5213 131.788 68.2413 131.044 68.2413 129.976C68.2413 128.92 67.5333 128.188 66.5253 128.188C65.4813 128.188 64.7853 128.92 64.7853 129.976ZM72.0827 128.776C71.5547 128.776 71.1107 128.344 71.1107 127.828C71.1107 127.3 71.5547 126.868 72.0827 126.868C72.6107 126.868 73.0547 127.3 73.0547 127.828C73.0547 128.344 72.6107 128.776 72.0827 128.776ZM72.0827 133.144C71.5547 133.144 71.1107 132.712 71.1107 132.196C71.1107 131.668 71.5547 131.236 72.0827 131.236C72.6107 131.236 73.0547 131.668 73.0547 132.196C73.0547 132.712 72.6107 133.144 72.0827 133.144ZM74.4652 128.632C74.4652 125.908 75.9292 124.06 78.1732 124.06C80.4172 124.06 81.8932 125.908 81.8932 128.632C81.8932 131.344 80.5012 133.156 78.1732 133.156C75.8452 133.156 74.4652 131.344 74.4652 128.632ZM75.9772 128.632C75.9772 130.66 76.7932 131.8 78.1732 131.8C79.5652 131.8 80.3812 130.66 80.3812 128.632C80.3812 126.556 79.5652 125.416 78.1732 125.416C76.7932 125.416 75.9772 126.556 75.9772 128.632ZM82.9262 128.632C82.9262 125.908 84.3902 124.06 86.6342 124.06C88.8782 124.06 90.3542 125.908 90.3542 128.632C90.3542 131.344 88.9622 133.156 86.6342 133.156C84.3062 133.156 82.9262 131.344 82.9262 128.632ZM84.4382 128.632C84.4382 130.66 85.2542 131.8 86.6342 131.8C88.0262 131.8 88.8422 130.66 88.8422 128.632C88.8422 126.556 88.0262 125.416 86.6342 125.416C85.2542 125.416 84.4382 126.556 84.4382 128.632ZM91.6151 130.444V129.148H95.4791V130.444H91.6151ZM97.6874 125.608H95.7674V124.228H99.1634V133H97.6874V125.608ZM100.33 124.228H106.63V125.644L103.45 133H101.854L105.094 125.644H100.33V124.228ZM108.563 128.776C108.035 128.776 107.591 128.344 107.591 127.828C107.591 127.3 108.035 126.868 108.563 126.868C109.091 126.868 109.535 127.3 109.535 127.828C109.535 128.344 109.091 128.776 108.563 128.776ZM108.563 133.144C108.035 133.144 107.591 132.712 107.591 132.196C107.591 131.668 108.035 131.236 108.563 131.236C109.091 131.236 109.535 131.668 109.535 132.196C109.535 132.712 109.091 133.144 108.563 133.144ZM110.946 128.632C110.946 125.908 112.41 124.06 114.654 124.06C116.898 124.06 118.374 125.908 118.374 128.632C118.374 131.344 116.982 133.156 114.654 133.156C112.326 133.156 110.946 131.344 110.946 128.632ZM112.458 128.632C112.458 130.66 113.274 131.8 114.654 131.8C116.046 131.8 116.862 130.66 116.862 128.632C116.862 126.556 116.046 125.416 114.654 125.416C113.274 125.416 112.458 126.556 112.458 128.632ZM119.407 128.632C119.407 125.908 120.871 124.06 123.115 124.06C125.359 124.06 126.835 125.908 126.835 128.632C126.835 131.344 125.443 133.156 123.115 133.156C120.787 133.156 119.407 131.344 119.407 128.632ZM120.919 128.632C120.919 130.66 121.735 131.8 123.115 131.8C124.507 131.8 125.323 130.66 125.323 128.632C125.323 126.556 124.507 125.416 123.115 125.416C121.735 125.416 120.919 126.556 120.919 128.632Z" fill="black"/>
<rect x="201.25" y="101.25" width="137.5" height="51.5" rx="3.75" fill="#EFFDF4" stroke="#F2F2F2" stroke-width="0.5"/>
<path d="M209.96 111.984H208.672V114H207.648V108.152H209.96C211.136 108.152 211.896 108.92 211.896 110.064C211.896 111.192 211.128 111.984 209.96 111.984ZM209.76 109.064H208.672V111.072H209.744C210.448 111.072 210.824 110.696 210.824 110.056C210.824 109.416 210.44 109.064 209.76 109.064ZM214.186 114.104C213.01 114.104 212.186 113.248 212.186 112.024C212.186 110.784 212.994 109.928 214.154 109.928C215.338 109.928 216.09 110.72 216.09 111.952V112.248L213.114 112.256C213.186 112.952 213.554 113.304 214.202 113.304C214.738 113.304 215.09 113.096 215.202 112.72H216.106C215.938 113.584 215.218 114.104 214.186 114.104ZM214.162 110.728C213.586 110.728 213.234 111.04 213.138 111.632H215.122C215.122 111.088 214.746 110.728 214.162 110.728ZM218.008 114.104C217.168 114.104 216.656 113.616 216.656 112.872C216.656 112.144 217.184 111.688 218.12 111.616L219.304 111.528V111.44C219.304 110.904 218.984 110.688 218.488 110.688C217.912 110.688 217.592 110.928 217.592 111.344H216.76C216.76 110.488 217.464 109.928 218.536 109.928C219.6 109.928 220.256 110.504 220.256 111.6V114H219.4L219.328 113.416C219.16 113.824 218.624 114.104 218.008 114.104ZM218.328 113.368C218.928 113.368 219.312 113.008 219.312 112.4V112.192L218.488 112.256C217.88 112.312 217.648 112.512 217.648 112.832C217.648 113.192 217.888 113.368 218.328 113.368ZM222.199 114H221.231V108.048H222.199V111.704L223.735 110.048H224.959L223.455 111.616L224.927 114H223.807L222.775 112.336L222.199 112.936V114ZM229.924 114H227.82V108.152H229.868C231.596 108.152 232.788 109.344 232.788 111.088C232.788 112.808 231.62 114 229.924 114ZM229.772 109.096H228.844V113.056H229.828C230.996 113.056 231.708 112.304 231.708 111.088C231.708 109.848 230.98 109.096 229.772 109.096ZM234.774 114.104C233.934 114.104 233.422 113.616 233.422 112.872C233.422 112.144 233.95 111.688 234.886 111.616L236.07 111.528V111.44C236.07 110.904 235.75 110.688 235.254 110.688C234.678 110.688 234.358 110.928 234.358 111.344H233.526C233.526 110.488 234.23 109.928 235.302 109.928C236.366 109.928 237.022 110.504 237.022 111.6V114H236.166L236.094 113.416C235.926 113.824 235.39 114.104 234.774 114.104ZM235.094 113.368C235.694 113.368 236.078 113.008 236.078 112.4V112.192L235.254 112.256C234.646 112.312 234.414 112.512 234.414 112.832C234.414 113.192 234.654 113.368 235.094 113.368ZM237.527 115.832V115.016H238.111C238.495 115.016 238.735 114.928 238.903 114.464L239.015 114.168L237.423 110.048H238.455L239.471 112.928L240.543 110.048H241.551L239.615 114.88C239.319 115.616 238.903 115.92 238.255 115.92C237.983 115.92 237.743 115.888 237.527 115.832Z" fill="black"/>
<path d="M207.522 146H207.084L208.662 141.704H209.196L210.792 146H210.342L209.922 144.86H207.942L207.522 146ZM208.872 142.31L208.074 144.482H209.784L208.98 142.31C208.962 142.25 208.932 142.178 208.926 142.136C208.92 142.172 208.896 142.25 208.872 142.31ZM211.916 146L210.728 143.096H211.172L211.922 144.968C212 145.178 212.078 145.376 212.132 145.568C212.186 145.37 212.264 145.178 212.348 144.968L213.11 143.096H213.536L212.33 146H211.916ZM213.697 144.464C213.697 143.672 214.207 143.018 215.059 143.018C215.563 143.018 215.947 143.252 216.133 143.678L216.175 143.096H216.535V145.91C216.535 146.774 215.983 147.338 215.131 147.338C214.387 147.338 213.865 146.918 213.751 146.216H214.165C214.255 146.684 214.615 146.96 215.137 146.96C215.731 146.96 216.127 146.558 216.127 145.952V145.262C215.929 145.67 215.527 145.91 215.029 145.91C214.201 145.91 213.697 145.256 213.697 144.464ZM214.111 144.458C214.111 145.052 214.477 145.538 215.089 145.538C215.719 145.538 216.091 145.082 216.091 144.458C216.091 143.84 215.731 143.384 215.095 143.384C214.471 143.384 214.111 143.87 214.111 144.458ZM217.753 146.066C217.549 146.066 217.375 145.898 217.375 145.7C217.375 145.496 217.549 145.322 217.753 145.322C217.957 145.322 218.131 145.496 218.131 145.7C218.131 145.898 217.957 146.066 217.753 146.066ZM221.287 142.094H220.411V141.704H221.701V146H221.287V142.094ZM225.625 145.088H225.121V146H224.701V145.088H222.445V144.704L224.545 141.704H225.121V144.704H225.625V145.088ZM222.913 144.704H224.701V142.148L222.913 144.704ZM227.45 143.696H227.108V143.396L228.434 142.088H226.376V141.704H228.98V142.052L227.696 143.33C228.5 143.372 229.076 143.882 229.076 144.662C229.076 145.514 228.452 146.072 227.582 146.072C226.736 146.072 226.166 145.55 226.166 144.692H226.592C226.592 145.31 226.976 145.682 227.582 145.682C228.224 145.682 228.638 145.274 228.638 144.65C228.638 144.062 228.218 143.696 227.45 143.696ZM232.956 143.06V143.432H232.728C232.194 143.432 231.852 143.792 231.852 144.344V146H231.438V143.096H231.828L231.858 143.546C231.972 143.234 232.278 143.03 232.686 143.03C232.776 143.03 232.854 143.036 232.956 143.06ZM234.613 146.072C233.761 146.072 233.191 145.46 233.191 144.548C233.191 143.642 233.755 143.018 234.583 143.018C235.369 143.018 235.903 143.576 235.903 144.398V144.602H233.593C233.623 145.31 233.995 145.718 234.619 145.718C235.093 145.718 235.399 145.514 235.507 145.13H235.903C235.747 145.742 235.297 146.072 234.613 146.072ZM234.583 143.372C234.037 143.372 233.677 143.732 233.605 144.302H235.489C235.489 143.744 235.129 143.372 234.583 143.372ZM236.319 145.184H236.715C236.715 145.52 236.967 145.73 237.375 145.73C237.825 145.73 238.089 145.538 238.089 145.226C238.089 144.986 237.969 144.848 237.627 144.764L237.129 144.638C236.625 144.512 236.379 144.248 236.379 143.852C236.379 143.342 236.805 143.018 237.429 143.018C238.041 143.018 238.437 143.354 238.455 143.894H238.053C238.041 143.558 237.807 143.36 237.417 143.36C237.009 143.36 236.781 143.534 236.781 143.846C236.781 144.068 236.937 144.224 237.255 144.302L237.753 144.428C238.257 144.554 238.485 144.788 238.485 145.208C238.485 145.73 238.041 146.072 237.381 146.072C236.727 146.072 236.319 145.724 236.319 145.184ZM239.166 147.266V143.096H239.526L239.568 143.684C239.772 143.234 240.18 143.018 240.666 143.018C241.506 143.018 242.01 143.66 242.01 144.536C242.01 145.412 241.524 146.072 240.666 146.072C240.174 146.072 239.784 145.862 239.58 145.442V147.266H239.166ZM239.586 144.548C239.586 145.214 239.958 145.7 240.594 145.7C241.224 145.7 241.59 145.214 241.59 144.548C241.59 143.876 241.224 143.396 240.594 143.396C239.958 143.396 239.586 143.876 239.586 144.548ZM242.466 144.548C242.466 143.66 243.09 143.018 243.942 143.018C244.794 143.018 245.418 143.66 245.418 144.548C245.418 145.43 244.794 146.072 243.942 146.072C243.09 146.072 242.466 145.43 242.466 144.548ZM242.886 144.542C242.886 145.226 243.318 145.7 243.942 145.7C244.56 145.7 244.998 145.226 244.998 144.542C244.998 143.87 244.56 143.39 243.942 143.39C243.318 143.39 242.886 143.87 242.886 144.542ZM246.494 146H246.08V143.096H246.44L246.5 143.6C246.692 143.228 247.076 143.018 247.496 143.018C248.294 143.018 248.624 143.492 248.624 144.224V146H248.21V144.314C248.21 143.636 247.904 143.396 247.424 143.396C246.83 143.396 246.494 143.828 246.494 144.482V146ZM249.168 145.184H249.564C249.564 145.52 249.816 145.73 250.224 145.73C250.674 145.73 250.938 145.538 250.938 145.226C250.938 144.986 250.818 144.848 250.476 144.764L249.978 144.638C249.474 144.512 249.228 144.248 249.228 143.852C249.228 143.342 249.654 143.018 250.278 143.018C250.89 143.018 251.286 143.354 251.304 143.894H250.902C250.89 143.558 250.656 143.36 250.266 143.36C249.858 143.36 249.63 143.534 249.63 143.846C249.63 144.068 249.786 144.224 250.104 144.302L250.602 144.428C251.106 144.554 251.334 144.788 251.334 145.208C251.334 145.73 250.89 146.072 250.23 146.072C249.576 146.072 249.168 145.724 249.168 145.184ZM253.234 146.072C252.382 146.072 251.812 145.46 251.812 144.548C251.812 143.642 252.376 143.018 253.204 143.018C253.99 143.018 254.524 143.576 254.524 144.398V144.602H252.214C252.244 145.31 252.616 145.718 253.24 145.718C253.714 145.718 254.02 145.514 254.128 145.13H254.524C254.368 145.742 253.918 146.072 253.234 146.072ZM253.204 143.372C252.658 143.372 252.298 143.732 252.226 144.302H254.11C254.11 143.744 253.75 143.372 253.204 143.372ZM254.94 145.184H255.336C255.336 145.52 255.588 145.73 255.996 145.73C256.446 145.73 256.71 145.538 256.71 145.226C256.71 144.986 256.59 144.848 256.248 144.764L255.75 144.638C255.246 144.512 255 144.248 255 143.852C255 143.342 255.426 143.018 256.05 143.018C256.662 143.018 257.058 143.354 257.076 143.894H256.674C256.662 143.558 256.428 143.36 256.038 143.36C255.63 143.36 255.402 143.534 255.402 143.846C255.402 144.068 255.558 144.224 255.876 144.302L256.374 144.428C256.878 144.554 257.106 144.788 257.106 145.208C257.106 145.73 256.662 146.072 256.002 146.072C255.348 146.072 254.94 145.724 254.94 145.184Z" fill="black"/>
<path d="M207.468 126.676C207.468 125.14 208.74 124.072 210.588 124.072C212.364 124.072 213.492 125.056 213.54 126.64H212.004C211.968 125.884 211.428 125.44 210.564 125.44C209.616 125.44 209.004 125.896 209.004 126.628C209.004 127.252 209.34 127.6 210.072 127.768L211.452 128.068C212.952 128.392 213.684 129.16 213.684 130.468C213.684 132.1 212.412 133.156 210.48 133.156C208.608 133.156 207.384 132.16 207.348 130.588H208.884C208.896 131.332 209.496 131.776 210.48 131.776C211.5 131.776 212.148 131.332 212.148 130.6C212.148 130.012 211.848 129.664 211.128 129.508L209.736 129.196C208.248 128.872 207.468 128.02 207.468 126.676ZM216.622 133.156C215.362 133.156 214.594 132.424 214.594 131.308C214.594 130.216 215.386 129.532 216.79 129.424L218.566 129.292V129.16C218.566 128.356 218.086 128.032 217.342 128.032C216.478 128.032 215.998 128.392 215.998 129.016H214.75C214.75 127.732 215.806 126.892 217.414 126.892C219.01 126.892 219.994 127.756 219.994 129.4V133H218.71L218.602 132.124C218.35 132.736 217.546 133.156 216.622 133.156ZM217.102 132.052C218.002 132.052 218.578 131.512 218.578 130.6V130.288L217.342 130.384C216.43 130.468 216.082 130.768 216.082 131.248C216.082 131.788 216.442 132.052 217.102 132.052ZM223.366 133H221.902V128.296H220.762V127.072H221.902V125.224H223.366V127.072H224.518V128.296H223.366V133ZM229.448 127.072H230.912V133H229.556L229.448 132.208C229.088 132.772 228.32 133.156 227.528 133.156C226.16 133.156 225.356 132.232 225.356 130.78V127.072H226.82V130.264C226.82 131.392 227.264 131.848 228.08 131.848C229.004 131.848 229.448 131.308 229.448 130.18V127.072ZM236.144 127.048V128.404H235.604C234.548 128.404 233.888 128.968 233.888 130.12V133H232.424V127.084H233.804L233.888 127.948C234.14 127.36 234.704 126.964 235.496 126.964C235.7 126.964 235.904 126.988 236.144 127.048ZM239.372 133.156C237.656 133.156 236.588 131.896 236.588 130.06C236.588 128.212 237.668 126.892 239.456 126.892C240.284 126.892 241.016 127.24 241.388 127.828V124.072H242.84V133H241.496L241.4 132.076C241.04 132.76 240.272 133.156 239.372 133.156ZM239.696 131.812C240.716 131.812 241.376 131.08 241.376 130.012C241.376 128.944 240.716 128.2 239.696 128.2C238.676 128.2 238.052 128.956 238.052 130.012C238.052 131.068 238.676 131.812 239.696 131.812ZM246.129 133.156C244.869 133.156 244.101 132.424 244.101 131.308C244.101 130.216 244.893 129.532 246.297 129.424L248.073 129.292V129.16C248.073 128.356 247.593 128.032 246.849 128.032C245.985 128.032 245.505 128.392 245.505 129.016H244.257C244.257 127.732 245.313 126.892 246.921 126.892C248.517 126.892 249.501 127.756 249.501 129.4V133H248.217L248.109 132.124C247.857 132.736 247.053 133.156 246.129 133.156ZM246.609 132.052C247.509 132.052 248.085 131.512 248.085 130.6V130.288L246.849 130.384C245.937 130.468 245.589 130.768 245.589 131.248C245.589 131.788 245.949 132.052 246.609 132.052ZM250.26 135.748V134.524H251.136C251.712 134.524 252.072 134.392 252.324 133.696L252.492 133.252L250.104 127.072H251.652L253.176 131.392L254.784 127.072H256.296L253.392 134.32C252.948 135.424 252.324 135.88 251.352 135.88C250.944 135.88 250.584 135.832 250.26 135.748Z" fill="black"/>
<rect x="323" y="188" width="18" height="16" rx="1" fill="#90A6C2"/>
<rect x="323" y="219" width="18" height="16" rx="1" fill="#64758B"/>
<rect x="174" y="188" width="18" height="16" rx="1" fill="#F1F5F9"/>
<rect x="174" y="219" width="18" height="16" rx="1" fill="#0F172A"/>
<rect x="298" y="188" width="18" height="16" rx="1" fill="#90A6C2"/>
<rect x="298" y="219" width="18" height="16" rx="1" fill="#F1F5F9"/>
<rect x="149" y="188" width="18" height="16" rx="1" fill="#F1F5F9"/>
<rect x="149" y="219" width="18" height="16" rx="1" fill="#0F172A"/>
<rect x="273" y="188" width="18" height="16" rx="1" fill="#CBD5E1"/>
<rect x="273" y="219" width="18" height="16" rx="1" fill="#64758B"/>
<rect x="124" y="188" width="18" height="16" rx="1" fill="#F1F5F9"/>
<rect x="124" y="219" width="18" height="16" rx="1" fill="#F1F5F9"/>
<rect x="248" y="188" width="18" height="16" rx="1" fill="#F1F5F9"/>
<rect x="248" y="219" width="18" height="16" rx="1" fill="#F1F5F9"/>
<rect x="99" y="188" width="18" height="16" rx="1" fill="#F1F5F9"/>
<rect x="99" y="219" width="18" height="16" rx="1" fill="#778CA8"/>
<rect x="223" y="188" width="18" height="16" rx="1" fill="#F1F5F9"/>
<rect x="223" y="219" width="18" height="16" rx="1" fill="#F1F5F9"/>
<rect x="74" y="188" width="18" height="16" rx="1" fill="#F1F5F9"/>
<rect x="74" y="219" width="18" height="16" rx="1" fill="#778CA8"/>
<rect x="198" y="188" width="18" height="16" rx="1" fill="#F1F5F9"/>
<rect x="198" y="219" width="18" height="16" rx="1" fill="#64758B"/>
<rect x="49" y="188" width="18" height="16" rx="1" fill="#F1F5F9"/>
<rect x="49" y="219" width="18" height="16" rx="1" fill="#778CA8"/>
<path d="M54.275 210.21C54.275 209.1 54.82 208.35 55.71 208.35C56.595 208.35 57.14 209.1 57.14 210.21C57.14 211.325 56.605 212.065 55.71 212.065C54.81 212.065 54.275 211.325 54.275 210.21ZM54.63 210.21C54.63 211.14 55.025 211.74 55.71 211.74C56.395 211.74 56.79 211.14 56.79 210.21C56.79 209.275 56.395 208.68 55.71 208.68C55.025 208.68 54.63 209.275 54.63 210.21ZM58.4681 212.06C57.9531 212.06 57.6481 211.77 57.6481 211.345C57.6481 210.9 57.9881 210.62 58.5531 210.575L59.3531 210.51V210.43C59.3531 209.955 59.0681 209.805 58.7131 209.805C58.2931 209.805 58.0431 209.995 58.0431 210.32H57.7281C57.7281 209.83 58.1281 209.515 58.7231 209.515C59.2831 209.515 59.6931 209.795 59.6931 210.435V212H59.4031L59.3581 211.575C59.2081 211.88 58.8781 212.06 58.4681 212.06ZM58.5481 211.78C59.0581 211.78 59.3531 211.425 59.3531 210.9V210.77L58.6381 210.825C58.1831 210.865 57.9981 211.065 57.9981 211.335C57.9981 211.63 58.2181 211.78 58.5481 211.78Z" fill="black"/>
<path d="M54.905 239.745H54.175V239.42H55.25V243H54.905V239.745ZM58.2549 243H55.8949V242.715L57.0399 241.715C57.6999 241.14 57.8699 240.89 57.8699 240.465C57.8699 239.98 57.5799 239.685 57.1049 239.685C56.6099 239.685 56.2849 240.045 56.2699 240.6H55.9099C55.9299 239.85 56.4049 239.355 57.1099 239.355C57.7849 239.355 58.2349 239.79 58.2349 240.445C58.2349 240.965 57.9999 241.31 57.2849 241.935L56.4499 242.665H58.2549V243ZM58.8375 244.055V240.58H59.1375L59.1725 241.07C59.3425 240.695 59.6825 240.515 60.0875 240.515C60.7875 240.515 61.2075 241.05 61.2075 241.78C61.2075 242.51 60.8025 243.06 60.0875 243.06C59.6775 243.06 59.3525 242.885 59.1825 242.535V244.055H58.8375ZM59.1875 241.79C59.1875 242.345 59.4975 242.75 60.0275 242.75C60.5525 242.75 60.8575 242.345 60.8575 241.79C60.8575 241.23 60.5525 240.83 60.0275 240.83C59.4975 240.83 59.1875 241.23 59.1875 241.79Z" fill="black"/>
<path d="M205.68 209.625L206.575 208.42H206.995L206.055 209.665C206.225 209.58 206.38 209.545 206.545 209.545C207.29 209.545 207.785 210.09 207.785 210.79C207.785 211.525 207.23 212.06 206.515 212.06C205.795 212.06 205.23 211.505 205.23 210.79C205.23 210.375 205.345 210.085 205.68 209.625ZM205.595 210.795C205.595 211.34 205.97 211.735 206.515 211.735C207.045 211.735 207.425 211.34 207.425 210.795C207.425 210.25 207.045 209.86 206.515 209.86C205.97 209.86 205.595 210.25 205.595 210.795ZM209.068 212.06C208.553 212.06 208.248 211.77 208.248 211.345C208.248 210.9 208.588 210.62 209.153 210.575L209.953 210.51V210.43C209.953 209.955 209.668 209.805 209.313 209.805C208.893 209.805 208.643 209.995 208.643 210.32H208.328C208.328 209.83 208.728 209.515 209.323 209.515C209.883 209.515 210.293 209.795 210.293 210.435V212H210.003L209.958 211.575C209.808 211.88 209.478 212.06 209.068 212.06ZM209.148 211.78C209.658 211.78 209.953 211.425 209.953 210.9V210.77L209.238 210.825C208.783 210.865 208.598 211.065 208.598 211.335C208.598 211.63 208.818 211.78 209.148 211.78Z" fill="black"/>
<path d="M205.68 240.625L206.575 239.42H206.995L206.055 240.665C206.225 240.58 206.38 240.545 206.545 240.545C207.29 240.545 207.785 241.09 207.785 241.79C207.785 242.525 207.23 243.06 206.515 243.06C205.795 243.06 205.23 242.505 205.23 241.79C205.23 241.375 205.345 241.085 205.68 240.625ZM205.595 241.795C205.595 242.34 205.97 242.735 206.515 242.735C207.045 242.735 207.425 242.34 207.425 241.795C207.425 241.25 207.045 240.86 206.515 240.86C205.97 240.86 205.595 241.25 205.595 241.795ZM208.373 244.055V240.58H208.673L208.708 241.07C208.878 240.695 209.218 240.515 209.623 240.515C210.323 240.515 210.743 241.05 210.743 241.78C210.743 242.51 210.338 243.06 209.623 243.06C209.213 243.06 208.888 242.885 208.718 242.535V244.055H208.373ZM208.723 241.79C208.723 242.345 209.033 242.75 209.563 242.75C210.088 242.75 210.393 242.345 210.393 241.79C210.393 241.23 210.088 240.83 209.563 240.83C209.033 240.83 208.723 241.23 208.723 241.79Z" fill="black"/>
<defs>
<filter id="filter0_d_118_362" x="0.700001" y="0.700001" width="385.6" height="298.6" filterUnits="userSpaceOnUse" color-interpolation-filters="sRGB">
<feFlood flood-opacity="0" result="BackgroundImageFix"/>
<feColorMatrix in="SourceAlpha" type="matrix" values="0 0 0 0 0 0 0 0 0 0 0 0 0 0 0 0 0 0 127 0" result="hardAlpha"/>
<feMorphology radius="10" operator="dilate" in="SourceAlpha" result="effect1_dropShadow_118_362"/>
<feOffset/>
<feGaussianBlur stdDeviation="13.65"/>
<feComposite in2="hardAlpha" operator="out"/>
<feColorMatrix type="matrix" values="0 0 0 0 0 0 0 0 0 0 0 0 0 0 0 0 0 0 0.07 0"/>
<feBlend mode="normal" in2="BackgroundImageFix" result="effect1_dropShadow_118_362"/>
<feBlend mode="normal" in="SourceGraphic" in2="effect1_dropShadow_118_362" result="shape"/>
</filter>
</defs>
</svg>
